<svg width="50" height="50" viewBox="0 0 50 50" fill="none" xmlns="http://www.w3.org/2000/svg">
<path d="M35.4066 27.1224L35.398 26.8597C35.3845 26.6832 35.3663 26.5064 35.3435 26.3291C35.288 25.975 35.2143 25.6199 35.0978 25.2754C35.07 25.1889 35.0412 25.1028 35.0113 25.017L34.9087 24.766L34.8564 24.6406C34.8379 24.5995 34.8186 24.5587 34.7987 24.5183L34.679 24.2769C34.6395 24.195 34.5914 24.1206 34.5476 24.043C34.5028 23.9664 34.46 23.8867 34.4109 23.8133L34.2645 23.5943C34.2403 23.5574 34.2157 23.5209 34.1908 23.4847L34.1128 23.3816C33.6962 22.8233 33.2218 22.3459 32.7293 21.9323C32.2357 21.5208 31.724 21.1677 31.209 20.8498C30.6941 20.5329 30.1759 20.2501 29.6578 19.9874C28.6226 19.4632 27.5905 19.0155 26.5788 18.5785C25.5671 18.1415 24.5746 17.7193 23.6238 17.2674C22.6751 16.8166 21.7648 16.3359 20.9582 15.7905C20.1505 15.246 19.4508 14.6346 18.9593 13.952C18.4658 13.2682 18.188 12.5175 18.1121 11.6817L18.0972 11.5254L18.0929 11.3649L18.0865 11.2054L18.0908 11.0554C18.0897 10.9544 18.1047 10.8555 18.11 10.7556C18.1143 10.7056 18.1239 10.6556 18.1292 10.6056C18.1378 10.5567 18.141 10.5057 18.1527 10.4568C18.2254 10.0612 18.344 9.66991 18.5245 9.30094C18.7019 8.92984 18.9284 8.57681 19.2019 8.25675C19.2353 8.21635 19.2695 8.17629 19.3044 8.13659L19.4123 8.02068L19.4668 7.96221L19.5234 7.90691L19.6377 7.79632C19.7168 7.72508 19.7959 7.65384 19.8781 7.58578C19.9625 7.51986 20.0426 7.44968 20.1313 7.38907C20.4785 7.136 20.8535 6.91588 21.2552 6.74468C21.6548 6.57242 22.0768 6.44164 22.5105 6.35338C22.9453 6.26513 23.3919 6.22153 23.8438 6.2194C24.321 6.21728 24.7897 6.25025 25.2498 6.3183C25.7092 6.38706 26.1557 6.49197 26.5895 6.63304C27.0222 6.77234 27.4356 6.95736 27.8298 7.17534C28.0286 7.28167 28.2187 7.4029 28.4078 7.52731C28.4997 7.59323 28.5926 7.65703 28.6824 7.72509C28.7721 7.79633 28.864 7.86225 28.9495 7.93669C29.2988 8.22804 29.6247 8.55236 29.9227 8.90751C30.2187 9.26479 30.4943 9.64652 30.74 10.0538C30.9857 10.461 31.2047 10.8906 31.4013 11.3372L34.0017 10.3015C33.7891 9.73372 33.5348 9.17546 33.2357 8.63423C32.9366 8.09405 32.5968 7.56771 32.2047 7.07326C31.4216 6.08649 30.4473 5.21136 29.3287 4.56485C28.7689 4.24266 28.1803 3.97046 27.5724 3.76311C26.9656 3.55257 26.3427 3.40157 25.7177 3.30268C25.0927 3.20379 24.4656 3.15595 23.8438 3.15382C23.1985 3.15276 22.5479 3.21443 21.9059 3.34097C21.2648 3.46857 20.6324 3.66209 20.0245 3.92154C19.4166 4.17993 18.8376 4.51382 18.298 4.90406C18.1613 4.99976 18.0331 5.10716 17.9017 5.2103C17.7724 5.31557 17.6485 5.42828 17.5235 5.53993L17.3419 5.71326L17.2521 5.80151L17.1656 5.89297L16.9925 6.07692C16.937 6.1393 16.8821 6.20274 16.828 6.26725C16.39 6.77871 16.0171 7.35186 15.7201 7.96646C15.4199 8.57894 15.2105 9.24033 15.0855 9.91768C15.0673 10.0027 15.0588 10.0889 15.0449 10.1739C15.0342 10.259 15.0193 10.3451 15.0118 10.4313C14.9979 10.6035 14.9776 10.7747 14.9765 10.948L14.9691 11.2075L14.9755 11.4563L14.984 11.7062C14.9897 11.7898 14.9965 11.8735 15.0043 11.9571C15.0631 12.627 15.2084 13.3065 15.4487 13.9541C15.687 14.6006 16.016 15.2141 16.4092 15.7607C16.8023 16.3083 17.25 16.7932 17.7211 17.2249C18.1933 17.6555 18.688 18.0351 19.1933 18.3754C20.2029 19.057 21.2424 19.5972 22.2723 20.0874C23.3032 20.5765 24.3299 21.0114 25.3321 21.4431C26.3331 21.8748 27.3138 22.3023 28.2358 22.768C29.1546 23.2327 30.0168 23.7421 30.7165 24.3194C31.0637 24.6087 31.3629 24.916 31.6033 25.2339C31.8468 25.5518 32.0178 25.8836 32.1332 26.2313C32.194 26.4046 32.2293 26.5865 32.2624 26.7704C32.2731 26.8647 32.2831 26.9593 32.2923 27.0543L32.2966 27.2011C32.2988 27.2489 32.303 27.3 32.2998 27.3446C32.2977 27.7094 32.2261 28.0656 32.0947 28.4143C31.9654 28.7535 31.7752 29.0864 31.5338 29.399C31.4761 29.3529 31.4177 29.3079 31.3586 29.2639C31.005 29.0002 30.6428 28.7642 30.2796 28.5441C29.9149 28.3243 29.5488 28.1212 29.1813 27.9348C28.8138 27.7462 28.4459 27.569 28.0777 27.4031C26.6066 26.7385 25.143 26.2058 23.7242 25.655C22.3065 25.1063 20.9272 24.5459 19.6634 23.8792C18.4049 23.2125 17.2681 22.4214 16.4658 21.4463L14.28 23.1881C14.8441 23.893 15.4915 24.5055 16.1742 25.0255C16.8547 25.5518 17.5684 25.9953 18.2884 26.3929C19.0096 26.7906 19.7382 27.1405 20.4668 27.4637C21.1943 27.787 21.9219 28.0858 22.6419 28.3739C24.081 28.9524 25.4998 29.4957 26.8235 30.1104C27.4837 30.4187 28.1215 30.7441 28.7048 31.1046C28.9965 31.2843 29.2764 31.4714 29.536 31.6692C29.796 31.867 30.0349 32.0736 30.2528 32.2891C30.6866 32.7219 31.0189 33.1855 31.2315 33.6874C31.4441 34.1882 31.5445 34.7348 31.5456 35.326C31.5424 35.6375 31.5253 35.9544 31.4825 36.2639C31.4366 36.5733 31.3778 36.8816 31.2934 37.1858C31.2058 37.4899 31.1065 37.7908 30.9815 38.0864C30.8543 38.382 30.7165 38.6755 30.5541 38.9605C29.9088 40.1057 29.0061 41.169 27.9634 42.1334C27.1076 42.9267 26.1664 43.6646 25.1793 44.3579C24.8851 44.241 24.5927 44.1201 24.3022 43.9953C23.7694 43.7635 23.2473 43.5165 22.736 43.2542C22.2232 42.9919 21.726 42.7112 21.2445 42.412C20.7627 42.1122 20.299 41.7953 19.861 41.4572C19.4219 41.119 19.0096 40.7607 18.6346 40.3821C18.2617 40.0036 17.922 39.6059 17.6495 39.1912C17.376 38.7776 17.1528 38.3512 17.0213 37.9248C16.9476 37.7121 16.907 37.4994 16.875 37.2889L16.8579 37.1315C16.8504 37.0784 16.8526 37.0263 16.8493 36.9742C16.8472 36.9221 16.8429 36.8699 16.8462 36.8125C16.8472 36.7572 16.8461 36.6998 16.8515 36.6456C16.8942 35.763 17.2564 35.0208 17.8643 34.5657C18.0167 34.453 18.1798 34.3591 18.3536 34.2839C18.5267 34.2095 18.7083 34.1585 18.892 34.1276C18.985 34.1159 19.0769 34.1032 19.1687 34.1021C19.1933 34.1021 19.2136 34.0989 19.2403 34.101L19.3183 34.1032C19.3707 34.1042 19.423 34.1032 19.4743 34.1106C19.6808 34.1241 19.8796 34.1602 20.0704 34.2191C20.4518 34.3339 20.8076 34.5274 21.111 34.8039C21.4155 35.0782 21.6751 35.4238 21.8599 35.8183C22.237 36.6084 22.3214 37.5643 22.1014 38.4596L24.8182 39.1359C25.1932 37.6685 25.0906 36.0544 24.4314 34.6285C24.1045 33.9171 23.6323 33.2557 23.034 32.7059C22.4379 32.1541 21.7018 31.7309 20.9134 31.4874C20.5202 31.3651 20.1142 31.2853 19.7093 31.2534C19.6078 31.2417 19.5074 31.2396 19.407 31.2364L19.2553 31.2311C19.2061 31.23 19.1495 31.2322 19.0972 31.2332C18.8824 31.2354 18.6698 31.2566 18.4594 31.2853C18.0384 31.3502 17.626 31.4629 17.234 31.6245C16.8429 31.7872 16.4712 31.9946 16.1304 32.2455C15.7906 32.4965 15.4808 32.7868 15.2105 33.1089C14.9402 33.4311 14.7116 33.7852 14.5257 34.1542C14.1539 34.8953 13.9637 35.6982 13.9157 36.4723C13.9071 36.5701 13.9071 36.6658 13.9039 36.7626C13.8996 36.8583 13.9028 36.9582 13.9061 37.0582C13.9103 37.1581 13.9093 37.2581 13.9189 37.357L13.9488 37.6547C14.0001 38.046 14.0781 38.4352 14.1966 38.801C14.4221 39.5432 14.7682 40.2099 15.1614 40.817C15.5556 41.4253 16.0107 41.9633 16.4893 42.4588C16.9701 42.9543 17.4786 43.402 18.0042 43.8156C18.5309 44.2293 19.0737 44.6078 19.6281 44.9598C20.1822 45.3121 20.7467 45.6385 21.3215 45.9391C21.8955 46.2404 22.4767 46.5222 23.065 46.7845C23.6533 47.0439 24.2462 47.2874 24.8438 47.515L25.5703 47.7968L26.2391 47.3555C26.9057 46.9163 27.5628 46.4548 28.2059 45.9646C28.5285 45.7211 28.8448 45.467 29.1599 45.2075C29.4719 44.9438 29.7807 44.6759 30.083 44.3941C30.3864 44.1166 30.6802 43.822 30.9697 43.5232C31.256 43.218 31.5402 42.9097 31.8084 42.58C31.9451 42.4205 32.0733 42.2483 32.2058 42.0824C32.3319 41.9091 32.4622 41.7411 32.5819 41.5603C32.8286 41.2083 33.0562 40.8362 33.2688 40.4544C33.4835 40.0738 33.6716 39.6718 33.8436 39.2624C34.0145 38.852 34.1566 38.4256 34.2773 37.9918C34.3959 37.5579 34.4803 37.1124 34.5423 36.6647C34.601 36.216 34.6246 35.7662 34.6256 35.3132C34.6224 34.8432 34.5754 34.3626 34.4792 33.8852C34.3842 33.4067 34.2378 32.9324 34.0402 32.4805C33.9212 32.2083 33.7855 31.9467 33.6331 31.6958C33.7392 31.5795 33.8418 31.459 33.9408 31.3342C34.3681 30.7983 34.7346 30.1901 34.9931 29.5181C35.2517 28.8482 35.4012 28.1166 35.4098 27.3882C35.414 27.2968 35.4087 27.2106 35.4066 27.1224Z" fill="#13292D"/>
<path opacity="0.36" d="M13.3613 33.0058L13.5333 33.092C14.5386 31.0918 16.3228 30.0785 18.8388 30.0785C22.2276 30.0785 25.2916 32.7113 25.3215 32.7379L25.4486 32.5933C25.4176 32.5667 22.3002 29.8871 18.8388 29.8871C15.607 29.8871 14.0761 31.5831 13.3613 33.0058Z" fill="#264F59"/>
<path opacity="0.36" fill-rule="evenodd" clip-rule="evenodd" d="M25.049 43.4787L25.0084 43.5031L24.9646 43.4861C23.3247 42.8321 21.5438 41.7879 20.2008 40.6927C19.0086 39.7208 17.5876 38.2375 17.5876 36.6893C17.5876 35.7918 18.3216 35.0613 19.2233 35.0613C20.1378 35.0613 20.8536 35.6961 21.2403 36.8509L21.2831 36.9774H18.8387V36.786H21.0138C20.6442 35.7822 20.0267 35.2527 19.2233 35.2527C18.4274 35.2527 17.78 35.8971 17.78 36.6893C17.78 37.1008 17.8889 37.5187 18.0834 37.9366C20.6933 38.3087 24.1526 40.5173 25.7146 42.7928C25.8285 42.7063 25.9432 42.6166 26.0586 42.5238V37.2709L25.2883 35.7546V33.9001H26.6366V34.6668H27.2145V33.9001H28.5617V34.6668H29.1397V33.9001H30.4869V35.7546L29.7166 37.2869V39.2168L29.6931 39.2445C29.6664 39.2753 26.9656 42.3345 25.049 43.4787ZM25.5597 42.9076C24.0533 40.7055 20.7393 38.5671 18.1891 38.1482C19.3173 40.2536 22.5469 42.3058 24.9913 43.2904C25.1751 43.1777 25.3645 43.0501 25.5597 42.9076ZM27.2145 38.0312C27.2145 37.5559 27.6024 37.1688 28.081 37.1688C28.5585 37.1688 28.9474 37.5559 28.9474 38.0312V39.7751C29.2487 39.4529 29.457 39.2211 29.5243 39.1445V37.2422L30.2348 35.8269H26.1547V35.6355H30.2946V34.0916H29.332V34.8582H28.3694V34.0916H27.4068V34.8582H26.4443V34.0916H25.4817V35.7089L26.2509 37.2252V42.3653C26.5757 42.0953 26.9004 41.805 27.2145 41.5126V38.0312ZM28.754 39.9792V38.0312C28.754 37.6612 28.4517 37.3602 28.081 37.3602C27.7092 37.3602 27.4068 37.6612 27.4068 38.0312V41.3307C27.9164 40.8469 28.3854 40.3673 28.754 39.9792Z" fill="#264F59"/>
<path opacity="0.36" fill-rule="evenodd" clip-rule="evenodd" d="M34.2423 48.0913C31.2071 48.0913 29.3524 48.8175 26.5779 49.9999L26.5021 49.8245C28.9956 48.7601 30.7915 48.0689 33.2733 47.9275C32.4912 47.634 32.0052 46.9609 31.9507 46.0284C31.8866 44.9481 32.425 43.7188 33.3887 42.7406C34.1889 41.9293 35.6514 40.9031 38.0809 40.6192L38.1033 40.8085C35.7294 41.0871 34.3042 42.0856 33.5265 42.8746C32.5992 43.8156 32.0821 44.9895 32.143 46.0167C32.1847 46.7302 32.4891 47.2693 32.9977 47.5841C32.9172 47.4515 32.8766 47.2998 32.8759 47.129C32.8759 46.0507 34.5809 44.4504 36.9377 44.4504V44.6429C34.6931 44.6429 33.0682 46.1273 33.0682 47.129C33.0689 47.3586 33.1575 47.5397 33.3342 47.6723C33.5115 47.8042 33.764 47.879 34.0917 47.8967C34.0945 47.8967 34.0973 47.8967 34.1002 47.8967C34.1458 47.8988 34.1931 47.8999 34.2423 47.8999C36.4238 47.8999 38.3875 46.3453 39.3661 43.8411C40.4034 41.187 40.2731 37.4356 37.6428 35.0357L37.7721 34.8943C40.4697 37.3548 40.6064 41.1956 39.5456 43.9113C39.0701 45.1267 38.3544 46.156 37.4751 46.8876C37.255 47.0705 37.0261 47.2332 36.7882 47.3757C38.6311 46.676 40.6267 45.3096 42.4034 43.4743C45.2313 40.5533 46.8531 37.173 46.8531 34.1988C46.8531 30.9461 45.0572 29.2001 43.2773 28.9119C42.1256 28.7269 41.162 29.1682 40.8789 30.0125L40.6972 29.9519C41.0103 29.0151 42.0594 28.5217 43.3083 28.7227C44.6021 28.9321 45.9022 29.8711 46.5753 31.5554C45.8819 28.3994 43.9536 26.2451 41.5583 26.2451C39.7005 26.2451 38.1888 27.7497 38.1888 29.5989C38.1888 31.1162 39.2592 31.3831 40.615 31.7202C42.1662 32.1062 44.0978 32.5868 44.7324 35.327L44.5454 35.3696C43.9365 32.7442 42.147 32.2987 40.568 31.9063C39.7026 31.6904 38.911 31.4937 38.4409 30.9652C38.8383 32.0775 39.6535 33.1493 40.5017 34.2648C42.0722 36.3308 43.6961 38.4671 42.8051 41.1275L42.6224 41.0669C43.4814 38.5021 41.8884 36.4074 40.3479 34.3807C39.1385 32.7899 37.9964 31.2874 37.9964 29.5989C37.9964 28.6472 38.3651 27.755 39.0349 27.0883C39.7058 26.4216 40.6011 26.0537 41.5583 26.0537C44.0166 26.0537 45.9995 28.2165 46.7366 31.3959C46.3659 27.2308 45.1779 25.101 44.1085 23.1848C43.226 21.6026 42.3917 20.1086 42.2325 17.7246L42.4248 17.7119C42.5808 20.0533 43.367 21.4612 44.2773 23.0923C45.4354 25.168 46.7313 27.4903 46.9962 32.3348C47.3637 30.0965 48.3637 28.9502 49.072 28.1378C49.8263 27.2755 50.2045 26.8416 49.1917 25.8347L48.5603 25.2052C48.4674 25.5816 48.1255 25.8623 47.7195 25.8623C47.2419 25.8623 46.8531 25.4753 46.8531 24.9999C46.8531 24.5246 47.2419 24.1376 47.7195 24.1376C48.1255 24.1376 48.4674 24.4183 48.5603 24.7947L49.1917 24.1652C50.2654 23.0976 49.1671 22.0003 47.5048 20.3394C46.3616 19.1973 44.9386 17.7757 43.8126 15.9297C42.7784 14.2326 42.1598 12.4579 41.9397 10.5418C41.6994 12.5207 41.0701 14.2411 40.5017 15.7979C39.3575 18.923 38.4548 21.3921 41.241 24.1652L41.1054 24.3013C39.787 22.9892 39.1834 21.6579 39.2058 20.1129C39.2261 18.722 39.7582 17.2695 40.3201 15.7319C40.8735 14.222 41.4825 12.5547 41.7314 10.6503C41.2816 11.9337 40.397 13.0896 39.4761 14.2922C37.5681 16.7846 35.5948 19.3622 37.4099 23.4283L37.2347 23.506C36.2914 21.3942 36.3416 19.6801 36.8725 18.1723L30.017 12.8652L26.3536 16.8761C26.8867 17.1111 27.4262 17.3429 27.9647 17.5726C28.3621 17.742 28.7538 17.9107 29.1398 18.0787V16.1849C29.1398 15.7096 29.5287 15.3226 30.0063 15.3226C30.4838 15.3226 30.8727 15.7096 30.8727 16.1849V18.8624C32.1045 19.4504 33.175 20.0523 33.9207 20.7126L33.7925 20.8561C32.5233 19.7322 30.2723 18.7688 27.8888 17.7491C23.7703 15.9861 19.5129 14.1646 19.5129 11.2021C19.5129 10.0856 19.9691 9.07336 20.7971 8.35136C21.5952 7.657 22.6774 7.2742 23.8451 7.2742C25.1303 7.2742 26.4326 7.71761 27.4187 8.49171C28.3899 9.25519 28.9475 10.243 28.9475 11.2021C28.9475 11.8891 28.3856 12.4484 27.6954 12.4484C27.0053 12.4484 26.4444 11.8891 26.4444 11.2021C26.4444 10.5152 27.0053 9.95699 27.6954 9.95699C28.0501 9.95699 28.3696 10.1048 28.5971 10.3408C28.376 9.72943 27.9294 9.13822 27.2991 8.64271C26.3472 7.89413 25.0876 7.4656 23.8451 7.4656C21.4851 7.4656 19.7052 9.07229 19.7052 11.2021C19.7052 12.8142 21.0621 14.0902 22.9787 15.2109V12.1198C22.1806 12.4803 20.8473 12.8131 20.7875 12.828L20.7405 12.643C20.7554 12.6387 22.2105 12.2751 22.9787 11.9093V10.9725C22.218 11.3308 21.1903 11.6732 21.1796 11.6764L21.1187 11.4946C21.1304 11.4914 22.2234 11.1266 22.9787 10.7598V9.82407L21.577 10.5216L21.4915 10.3504L22.9787 9.61034V8.69799L21.9723 9.36577L21.8665 9.20627L23.0748 8.40453L24.2831 9.20627L24.1763 9.36577L23.171 8.69799V9.61034L24.6581 10.3504L24.5716 10.5216L23.171 9.82407V10.7598C23.9252 11.1266 25.0192 11.4914 25.031 11.4946L24.969 11.6764C24.9583 11.6732 23.9316 11.3308 23.171 10.9725V11.9093C23.9391 12.2751 25.3932 12.6387 25.4081 12.643L25.3622 12.828C25.3023 12.8131 23.969 12.4803 23.171 12.1198V15.3215C24.0812 15.8393 25.1068 16.3242 26.1677 16.7942L29.9945 12.6057L36.942 17.983C37.474 16.5922 38.4056 15.3747 39.3234 14.1763C40.3329 12.8567 41.2998 11.5945 41.678 10.1675C41.4301 10.662 41.0658 11.1798 40.6171 11.6519C39.6748 12.6451 38.614 13.214 37.708 13.214C36.6194 13.214 35.8619 12.6515 35.629 11.6711C35.2572 10.1027 36.3491 7.74739 38.8202 6.51711L38.8896 6.48308L38.9377 6.54369C38.9537 6.56283 40.5081 8.54169 38.9377 10.4961L38.787 10.3759C40.1268 8.70969 39.0808 7.06685 38.834 6.72446C36.4997 7.9207 35.4655 10.1463 35.816 11.6264C36.0264 12.5143 36.7166 13.0226 37.708 13.0226C38.5488 13.0226 39.584 12.4611 40.4772 11.5201C41.3094 10.6428 41.8468 9.61565 41.8468 8.90322C41.8468 7.4337 41.0135 5.81318 39.6172 4.56695C38.8917 3.91938 38.0734 3.41324 37.2005 3.06128C36.1856 2.68274 35.1867 2.48282 34.2423 2.48282C33.1825 2.48282 32.6996 3.20376 32.6996 3.87366C32.6996 4.34259 32.9303 4.80089 33.3342 5.13159C33.8203 5.53034 34.5339 5.74087 35.3972 5.74087V5.93228C33.4111 5.93228 32.5073 4.86468 32.5073 3.87366C32.5073 3.3069 32.8171 2.73484 33.4164 2.45943C30.924 2.32545 27.9155 1.59175 26.4722 0.155187L26.6079 0.0201416C28.1762 1.58005 31.6644 2.29142 34.2423 2.29142C35.2893 2.29142 36.3213 2.4977 37.2892 2.89007C39.0915 3.56742 40.9408 4.79876 42.6374 6.48734C45.0807 8.92024 46.6608 11.8242 46.6608 13.8849H46.4685C46.4685 11.872 44.9108 9.02126 42.5006 6.62345C41.5338 5.66113 40.5177 4.8498 39.4911 4.20648C39.5772 4.27666 39.662 4.34897 39.7453 4.4234C41.1823 5.70578 42.0391 7.38053 42.0391 8.90322C42.0391 11.5467 43.7303 13.1725 45.3659 14.7452C46.5699 15.9021 47.7078 16.9962 48.196 18.4541L48.0133 18.5147C47.54 17.1015 46.4193 16.0233 45.2324 14.8823C44.0102 13.7074 42.7592 12.5026 42.179 10.8672C42.8372 15.4044 45.68 18.2446 47.6415 20.2043C49.322 21.8844 50.5367 23.0977 49.3274 24.3013L48.6255 24.9999L49.3274 25.6985C50.4673 26.8331 49.9705 27.402 49.2173 28.2633C48.353 29.2543 47.0454 30.7526 47.0454 34.1988C47.0454 37.2219 45.4044 40.6511 42.5423 43.6072C39.8639 46.3729 36.6835 48.0913 34.2423 48.0913ZM28.7542 11.2021C28.7542 10.6216 28.2798 10.1484 27.6954 10.1484C27.1121 10.1484 26.6367 10.6216 26.6367 11.2021C26.6367 11.7838 27.1121 12.2559 27.6954 12.2559C28.2798 12.2559 28.7542 11.7838 28.7542 11.2021ZM29.1922 18.101C29.7039 18.3243 30.2028 18.5466 30.6793 18.771V16.1849C30.6793 15.8149 30.3781 15.514 30.0063 15.514C29.6345 15.514 29.3322 15.8149 29.3322 16.1849V18.101H29.1922ZM48.3936 24.9999C48.3936 24.6299 48.0913 24.329 47.7195 24.329C47.3477 24.329 47.0454 24.6299 47.0454 24.9999C47.0454 25.37 47.3477 25.6709 47.7195 25.6709C48.0913 25.6709 48.3936 25.37 48.3936 24.9999Z" fill="#264F59"/>
<path opacity="0.36" fill-rule="evenodd" clip-rule="evenodd" d="M16.5834 47.5405C19.0759 47.6745 22.0843 48.4082 23.5277 49.8448L23.392 49.9798C21.8236 48.4199 18.3355 47.7085 15.7576 47.7085C14.7106 47.7085 13.6786 47.5022 12.7106 47.1099C10.9083 46.4325 9.05902 45.2012 7.36248 43.5126C4.91917 41.0797 3.33908 38.1758 3.33908 36.115H3.53139C3.53139 38.1279 5.08903 40.9787 7.49922 43.3765C8.46608 44.3388 9.48208 45.1502 10.5088 45.7935C10.4226 45.7233 10.3378 45.651 10.2545 45.5765C8.81757 44.2942 7.96076 42.6194 7.96076 41.0967C7.96076 38.4533 6.26956 36.8274 4.63392 35.2548C3.42989 34.0979 2.2921 33.0037 1.80386 31.5459L1.98654 31.4853C2.45982 32.8984 3.58052 33.9767 4.76746 35.1176C5.98965 36.2926 7.24068 37.4973 7.8208 39.1328C7.16269 34.5955 4.31982 31.7553 2.35833 29.7956C0.676746 28.1156 -0.536888 26.9023 0.672483 25.6986L1.37438 25L0.672483 24.3014C-0.467446 23.1668 0.0293268 22.5979 0.782513 21.7366C1.64681 20.7456 2.95447 19.2474 2.95447 15.8011C2.95447 12.7781 4.59546 9.34882 7.45757 6.39275C9.92866 3.84076 12.826 2.18196 15.1775 1.93952C15.1988 1.93739 15.2202 1.93526 15.2416 1.93313C15.2722 1.9303 15.3025 1.92782 15.3324 1.92569C15.3851 1.92144 15.4381 1.9179 15.4915 1.91506C15.5086 1.91435 15.5257 1.91364 15.5428 1.91293C15.614 1.9101 15.6856 1.90868 15.7576 1.90868C18.7927 1.90868 20.6474 1.18243 23.4219 0L23.4977 0.175452C20.9711 1.25367 19.1613 1.95016 16.6293 2.07776C16.9456 2.23088 17.14 2.48182 17.1849 2.81677C17.3483 4.03109 15.5482 5.92382 12.7032 6.6958L12.6519 6.51078C15.6561 5.69521 17.1261 3.82374 16.9947 2.84228C16.9295 2.36379 16.4905 2.10008 15.7576 2.10008C15.6892 2.10008 15.6201 2.1015 15.5503 2.10434C15.5304 2.10505 15.5104 2.1061 15.4905 2.10752C15.4449 2.10965 15.3993 2.11249 15.3537 2.11603C15.3153 2.11887 15.2772 2.12206 15.2394 2.1256C15.2337 2.12631 15.2284 2.12702 15.2234 2.12773C13.56 2.30318 12.1914 3.30165 11.3293 4.9849C9.83571 7.90588 10.2727 12.1082 12.3698 14.9792C15.8911 19.7971 21.7446 22.3236 26.0191 24.1695C29.2562 25.5668 31.395 26.4897 30.864 27.7211L30.6877 27.6456C31.1418 26.5897 28.9613 25.6486 25.9421 24.345C21.6474 22.4905 15.7661 19.9513 12.2149 15.0919C11.1231 13.5979 10.4575 11.7955 10.2887 9.87942C10.1295 8.07388 10.4383 6.30449 11.1583 4.8977C11.6583 3.92156 12.3239 3.16661 13.1177 2.66046C11.3004 3.37076 9.3432 4.72226 7.59645 6.52567C4.76853 9.44664 3.14677 12.827 3.14677 15.8011C3.14677 19.0538 4.94267 20.7998 6.72254 21.088C7.87422 21.2741 8.83787 20.8317 9.12098 19.9875L9.3026 20.0481C9.03658 20.8445 8.23639 21.3209 7.23427 21.3209C7.05906 21.3216 6.87816 21.307 6.69156 21.2773C5.39779 21.0678 4.09761 20.1289 3.42455 18.4446C4.11791 21.6005 6.04628 23.7548 8.44151 23.7548C10.2994 23.7548 11.8111 22.2502 11.8111 20.4011C11.8111 18.7657 10.5301 18.2883 9.04833 17.7353C7.46931 17.1462 5.6809 16.4795 4.88498 14.3008L5.0666 14.2359C5.83154 16.3307 7.57614 16.9814 9.11563 17.5556C10.0846 17.9171 10.9714 18.2478 11.4991 18.8773C11.0835 17.8215 10.3069 16.7985 9.49811 15.7352C7.92764 13.6691 6.30374 11.5329 7.19475 8.87244L7.37744 8.93305C6.51849 11.4978 8.11139 13.5926 9.65195 15.6193C10.8613 17.21 12.0034 18.7125 12.0034 20.4011C12.0034 21.3528 11.6348 22.2449 10.965 22.9116C10.294 23.5783 9.39875 23.9462 8.44151 23.9462C5.98538 23.9462 4.0036 21.7866 3.26537 18.6115C3.63715 22.7489 4.82194 24.8788 5.88816 26.797C6.77275 28.3867 7.60713 29.8892 7.76738 32.2753L7.57508 32.2881C7.41804 29.9445 6.63066 28.5292 5.71936 26.8895C4.56341 24.8107 3.26963 22.4831 3.00361 17.6641C2.6361 19.9024 1.63614 21.0497 0.92782 21.8621C0.173565 22.7245 -0.20463 23.1583 0.808165 24.1653L1.43955 24.7948C1.5325 24.4184 1.87437 24.1376 2.28034 24.1376C2.75789 24.1376 3.14677 24.5247 3.14677 25C3.14677 25.4753 2.75789 25.8624 2.28034 25.8624C1.87437 25.8624 1.5325 25.5816 1.43955 25.2052L0.808165 25.8347C-0.265526 26.9023 0.832728 27.9997 2.49508 29.6606C3.63821 30.8026 5.06126 32.2243 6.1873 34.0702C7.22146 35.7673 7.84003 37.542 8.06011 39.4581C8.30048 37.4793 8.92975 35.7588 9.49811 34.2021C10.6423 31.0769 11.5451 28.6079 8.75881 25.8347L8.89449 25.6986C10.2128 27.0108 10.8165 28.3421 10.794 29.8871C10.7737 31.2779 10.2417 32.7304 9.67973 34.268C9.13594 35.7524 8.53873 37.3868 8.28233 39.2508C8.7257 37.9227 9.56969 36.6265 10.4468 35.2782C12.4051 32.2711 14.4307 29.1608 12.5899 25.0393L12.3794 24.5672L12.7459 24.9319C14.983 27.1596 18.813 28.4431 22.1922 29.5755C25.1943 30.5814 28.0297 31.531 29.3085 32.9856L29.1632 33.1122C27.9186 31.6969 25.1077 30.7548 22.1303 29.7563C18.8921 28.6717 15.2416 27.4478 12.9414 25.3817C13.6209 27.1245 13.6786 28.8503 13.1187 30.6431C12.5856 32.3455 11.5814 33.8895 10.6092 35.3824C9.72888 36.7339 8.88381 38.0322 8.45113 39.3529C8.54087 39.2033 8.6413 39.0615 8.75241 38.9275C9.28872 38.2874 9.99917 37.9354 10.7524 37.9354C11.6904 37.9354 12.3987 38.3959 12.747 39.2316C13.3185 40.6055 12.81 42.6332 11.5899 43.8476L11.5408 43.8965L11.4788 43.8656C9.91262 43.0862 9.5184 40.8256 9.50238 40.7299L9.69148 40.698C9.69575 40.7203 10.0761 42.8959 11.5034 43.6625C12.6369 42.4939 13.1049 40.5948 12.5685 39.305C12.3453 38.768 11.8485 38.1268 10.7524 38.1268C9.22034 38.1268 8.15306 39.6921 8.15306 41.0967C8.15306 42.5662 8.98638 44.1868 10.3827 45.433C11.1081 46.0806 11.9265 46.5867 12.7993 46.9387C13.8142 47.3172 14.8131 47.5171 15.7576 47.5171C16.8174 47.5171 17.3003 46.7962 17.3003 46.1263C17.3003 45.2267 16.4563 44.2591 14.6027 44.2591V44.0677C15.5119 44.0677 16.2672 44.2931 16.7885 44.7206C17.2362 45.0885 17.4926 45.5999 17.4926 46.1263C17.4926 46.693 17.1827 47.2651 16.5834 47.5405ZM1.60622 25C1.60622 25.37 1.90855 25.671 2.28034 25.671C2.65213 25.671 2.95447 25.37 2.95447 25C2.95447 24.63 2.65213 24.329 2.28034 24.329C1.90855 24.329 1.60622 24.63 1.60622 25Z" fill="#264F59"/>
</svg>
