<svg width="90" height="90" viewBox="0 0 90 90" fill="none" xmlns="http://www.w3.org/2000/svg">
<path d="M63.7322 48.8202L63.7168 48.3474C63.6924 48.0297 63.6597 47.7114 63.6187 47.3924C63.5187 46.755 63.386 46.1157 63.1764 45.4956C63.1264 45.3399 63.0745 45.1849 63.0206 45.0305L62.836 44.5788L62.7418 44.3529C62.7085 44.2789 62.6738 44.2055 62.6379 44.1328L62.4226 43.6983C62.3514 43.551 62.2649 43.417 62.186 43.2773C62.1053 43.1395 62.0284 42.9959 61.9399 42.8638L61.6764 42.4696C61.6328 42.4032 61.5886 42.3375 61.5437 42.2724L61.4034 42.0868C60.6534 41.0819 59.7995 40.2225 58.913 39.478C58.0246 38.7373 57.1034 38.1018 56.1765 37.5295C55.2496 36.9591 54.317 36.45 53.3843 35.9773C51.5209 35.0337 49.6632 34.2279 47.8421 33.4412C46.021 32.6546 44.2345 31.8947 42.523 31.0813C40.8153 30.2697 39.1769 29.4046 37.725 28.4227C36.2712 27.4428 35.0116 26.3422 34.127 25.1134C33.2385 23.8827 32.7385 22.5314 32.602 21.027L32.5751 20.7457L32.5674 20.4567L32.5558 20.1696L32.5635 19.8997C32.5616 19.7179 32.5885 19.5399 32.5982 19.36C32.6058 19.27 32.6232 19.18 32.6328 19.0901C32.6481 19.002 32.6539 18.9102 32.6751 18.8221C32.8058 18.1101 33.0193 17.4057 33.3443 16.7416C33.6635 16.0736 34.0712 15.4382 34.5635 14.8621C34.6237 14.7893 34.6853 14.7172 34.7481 14.6458L34.9423 14.4371L35.0404 14.3319L35.1423 14.2323L35.3481 14.0333C35.4904 13.905 35.6327 13.7768 35.7808 13.6543C35.9327 13.5356 36.0769 13.4093 36.2365 13.3002C36.8615 12.8447 37.5365 12.4485 38.2596 12.1403C38.9788 11.8303 39.7384 11.5949 40.5192 11.436C41.3018 11.2771 42.1057 11.1987 42.9191 11.1948C43.7781 11.191 44.6216 11.2503 45.4498 11.3728C46.2767 11.4966 47.0806 11.6855 47.8613 11.9394C48.6401 12.1901 49.3844 12.5231 50.094 12.9155C50.4516 13.1069 50.794 13.3251 51.1343 13.5491C51.2997 13.6677 51.467 13.7826 51.6285 13.9051C51.7901 14.0333 51.9555 14.152 52.1093 14.2859C52.7381 14.8104 53.3247 15.3941 53.8612 16.0334C54.3939 16.6765 54.89 17.3636 55.3323 18.0967C55.7746 18.8298 56.1688 19.603 56.5227 20.4069L61.2034 18.5427C60.8207 17.5206 60.363 16.5157 59.8245 15.5415C59.2861 14.5692 58.6746 13.6218 57.9688 12.7318C56.5592 10.9556 54.8054 9.38035 52.792 8.21664C51.7843 7.6367 50.7247 7.14673 49.6305 6.7735C48.5382 6.39453 47.4171 6.12272 46.2921 5.94472C45.1671 5.76672 44.0383 5.68061 42.9191 5.67678C41.7576 5.67487 40.5865 5.78588 39.4307 6.01365C38.2769 6.24333 37.1384 6.59167 36.0442 7.05868C34.95 7.52378 33.9077 8.12478 32.9366 8.82722C32.6905 8.99948 32.4597 9.19279 32.2232 9.37845C31.9905 9.56793 31.7674 9.77081 31.5424 9.97178L31.2155 10.2838L31.0539 10.4426L30.8982 10.6072L30.5866 10.9384C30.4867 11.0506 30.3879 11.1648 30.2905 11.281C29.5021 12.2016 28.8309 13.2332 28.2963 14.3395C27.7559 15.442 27.379 16.6325 27.154 17.8517C27.1213 18.0048 27.106 18.1599 27.081 18.313C27.0617 18.4661 27.0348 18.6211 27.0213 18.7762C26.9963 19.0862 26.9598 19.3944 26.9579 19.7064L26.9444 20.1734L26.9559 20.6213L26.9713 21.0711C26.9816 21.2216 26.9938 21.3722 27.0079 21.5228C27.1136 22.7286 27.3752 23.9516 27.8079 25.1172C28.2367 26.281 28.829 27.3853 29.5367 28.3691C30.2444 29.3548 31.0501 30.2276 31.8982 31.0047C32.7481 31.7799 33.6385 32.4632 34.5481 33.0756C36.3654 34.3025 38.2365 35.2748 40.0903 36.1572C41.946 37.0376 43.7941 37.8205 45.5979 38.5975C47.3998 39.3746 49.1651 40.144 50.8247 40.9824C52.4785 41.8188 54.0304 42.7356 55.29 43.7749C55.915 44.2955 56.4535 44.8486 56.8861 45.4209C57.3246 45.9932 57.6323 46.5904 57.84 47.2163C57.9496 47.5282 58.013 47.8555 58.0727 48.1867C58.0919 48.3564 58.1098 48.5267 58.1265 48.6977L58.1342 48.9618C58.138 49.048 58.1457 49.1398 58.14 49.2202C58.1361 49.8767 58.0073 50.5179 57.7707 51.1457C57.538 51.7563 57.1957 52.3554 56.7611 52.9181C56.6573 52.8351 56.5522 52.7541 56.4458 52.675C55.8092 52.2003 55.1573 51.7754 54.5035 51.3792C53.8471 50.9836 53.1881 50.6181 52.5266 50.2825C51.8651 49.9431 51.2029 49.6241 50.5401 49.3255C47.8921 48.1292 45.2575 47.1703 42.7037 46.1789C40.1518 45.1913 37.6692 44.1826 35.3942 42.9825C33.1289 41.7824 31.0828 40.3584 29.6386 38.6033L25.704 41.7384C26.7194 43.0074 27.8848 44.1098 29.1136 45.0458C30.3386 45.9932 31.6232 46.7914 32.9193 47.5072C34.2173 48.223 35.5289 48.8527 36.8404 49.4346C38.15 50.0165 39.4596 50.5543 40.7557 51.073C43.346 52.1142 45.8998 53.0923 48.2825 54.1985C49.4709 54.7536 50.6189 55.3393 51.6689 55.9881C52.1939 56.3116 52.6978 56.6484 53.1651 57.0044C53.633 57.3605 54.0631 57.7324 54.4554 58.1203C55.2362 58.8993 55.8342 59.7338 56.2169 60.6372C56.5996 61.5387 56.7804 62.5225 56.7823 63.5867C56.7765 64.1475 56.7458 64.7179 56.6688 65.2748C56.5861 65.8318 56.4804 66.3869 56.3285 66.9343C56.1708 67.4817 55.9919 68.0233 55.7669 68.5554C55.5381 69.0875 55.29 69.6158 54.9977 70.1287C53.8362 72.1901 52.2112 74.1041 50.3343 75.8401C48.794 77.2679 47.0998 78.5963 45.3229 79.8442C44.7934 79.6337 44.2671 79.4161 43.7441 79.1915C42.7851 78.7743 41.8454 78.3296 40.9249 77.8575C40.0019 77.3853 39.107 76.88 38.2403 76.3416C37.3731 75.8018 36.5385 75.2315 35.75 74.6228C34.9596 74.0142 34.2173 73.3691 33.5424 72.6878C32.8712 72.0064 32.2597 71.2905 31.7693 70.5441C31.277 69.7995 30.8751 69.032 30.6386 68.2645C30.5059 67.8817 30.4328 67.4989 30.3751 67.1199L30.3443 66.8367C30.3309 66.741 30.3347 66.6472 30.329 66.5534C30.3251 66.4596 30.3174 66.3658 30.3232 66.2625C30.3251 66.1629 30.3232 66.0596 30.3328 65.962C30.4097 64.3733 31.0616 63.0374 32.1559 62.2182C32.4302 62.0153 32.7238 61.8462 33.0366 61.711C33.3481 61.577 33.6751 61.4851 34.0058 61.4296C34.1731 61.4086 34.3385 61.3856 34.5039 61.3837C34.5481 61.3837 34.5847 61.3779 34.6327 61.3818L34.7731 61.3856C34.8673 61.3875 34.9616 61.3856 35.0539 61.399C35.4257 61.4232 35.7833 61.4883 36.1269 61.5942C36.8134 61.8009 37.4538 62.1493 38 62.6469C38.548 63.1407 39.0153 63.7628 39.348 64.4729C40.0268 65.895 40.1788 67.6156 39.7826 69.2272L44.6729 70.4445C45.3479 67.8032 45.1633 64.8978 43.9768 62.3311C43.3883 61.0507 42.5383 59.8601 41.4614 58.8706C40.3884 57.8772 39.0634 57.1155 37.6442 56.6772C36.9365 56.4571 36.2058 56.3135 35.4769 56.2561C35.2942 56.235 35.1135 56.2312 34.9327 56.2255L34.6596 56.2159C34.5712 56.214 34.4693 56.2178 34.375 56.2197C33.9885 56.2235 33.6058 56.2618 33.227 56.3135C32.4693 56.4302 31.727 56.6331 31.0213 56.9241C30.3174 57.2169 29.6482 57.5901 29.0348 58.0418C28.4232 58.4935 27.8655 59.0161 27.379 59.596C26.8925 60.1759 26.481 60.8133 26.1464 61.4775C25.4771 62.8115 25.1348 64.2566 25.0483 65.65C25.0329 65.8261 25.0329 65.9983 25.0271 66.1725C25.0195 66.3448 25.0252 66.5247 25.031 66.7046C25.0387 66.8845 25.0368 67.0644 25.0541 67.2424L25.1079 67.7783C25.2002 68.4827 25.3406 69.1832 25.5541 69.8416C25.9598 71.1776 26.5829 72.3777 27.2906 73.4706C28.0002 74.5654 28.8194 75.5339 29.6809 76.4258C30.5463 77.3177 31.4616 78.1235 32.4078 78.868C33.3558 79.6126 34.3327 80.294 35.3308 80.9275C36.3282 81.5617 37.3442 82.1493 38.3788 82.6903C39.4121 83.2326 40.4583 83.7398 41.5172 84.2119C42.5762 84.6789 43.6434 85.1172 44.7191 85.5268L46.0267 86.0341L47.2306 85.2397C48.4305 84.4493 49.6132 83.6186 50.7709 82.7362C51.3516 82.2979 51.9209 81.8405 52.4881 81.3735C53.0497 80.8988 53.6054 80.4165 54.1497 79.9093C54.6958 79.4097 55.2246 78.8795 55.7458 78.3417C56.2612 77.7924 56.7727 77.2373 57.2554 76.644C57.5015 76.3569 57.7323 76.0468 57.9707 75.7482C58.1977 75.4363 58.4323 75.1338 58.6476 74.8085C59.0919 74.1749 59.5015 73.505 59.8842 72.8179C60.2707 72.1327 60.6091 71.4092 60.9188 70.6723C61.2264 69.9335 61.4822 69.166 61.6995 68.3851C61.913 67.6042 62.0649 66.8022 62.1764 65.9964C62.2822 65.1887 62.3245 64.3791 62.3264 63.5637C62.3206 62.7177 62.236 61.8526 62.063 60.9932C61.8918 60.1319 61.6284 59.2783 61.2726 58.4648C61.0585 57.9748 60.8143 57.504 60.5399 57.0523C60.7309 56.843 60.9155 56.6261 61.0938 56.4015C61.863 55.4369 62.5226 54.3421 62.9879 53.1324C63.4533 51.9266 63.7225 50.6098 63.7379 49.2987C63.7456 49.1341 63.736 48.979 63.7322 48.8202Z" fill="#EBFCF2"/>
<path opacity="0.36" d="M24.0503 59.4102L24.3599 59.5652C26.1695 55.9649 29.381 54.1409 33.9097 54.1409C40.0096 54.1409 45.5249 58.88 45.5787 58.9278L45.8076 58.6675C45.7518 58.6197 40.1404 53.7964 33.9097 53.7964C28.0925 53.7964 25.3368 56.8492 24.0503 59.4102Z" fill="#EBFCF2"/>
<path opacity="0.36" fill-rule="evenodd" clip-rule="evenodd" d="M45.0885 78.2618L45.0154 78.3058L44.9365 78.2752C41.9847 77.0981 38.779 75.2185 36.3617 73.2471C34.2156 71.4977 31.658 68.8277 31.658 66.0409C31.658 64.4255 32.9791 63.1106 34.6021 63.1106C36.2483 63.1106 37.5367 64.2533 38.2328 66.3319L38.3098 66.5596H33.9098V66.2151H37.8251C37.1598 64.4083 36.0483 63.4551 34.6021 63.4551C33.1695 63.4551 32.0041 64.615 32.0041 66.0409C32.0041 66.7817 32.2003 67.5339 32.5503 68.2861C37.2482 68.956 43.475 72.9313 46.2865 77.0273C46.4916 76.8716 46.698 76.7102 46.9057 76.543V67.0879L45.5192 64.3585V61.0205H47.9461V62.4005H48.9865V61.0205H51.4114V62.4005H52.4518V61.0205H54.8767V64.3585L53.4902 67.1166V70.5905L53.4479 70.6403C53.3998 70.6958 48.5384 76.2024 45.0885 78.2618ZM46.0077 77.234C43.2962 73.2701 37.3309 69.4211 32.7406 68.6669C34.7714 72.4567 40.5847 76.1507 44.9846 77.923C45.3154 77.7201 45.6564 77.4905 46.0077 77.234ZM48.9865 68.4564C48.9865 67.6009 49.6845 66.9041 50.5461 66.9041C51.4057 66.9041 52.1056 67.6009 52.1056 68.4564V71.5953C52.6479 71.0154 53.0229 70.5982 53.1441 70.4604V67.0362L54.4229 64.4887H47.0788V64.1442H54.5306V61.365H52.7979V62.745H51.0653V61.365H49.3326V62.745H47.6V61.365H45.8673V64.2762L47.2519 67.0056V76.2579C47.8365 75.7717 48.4211 75.2492 48.9865 74.7228V68.4564ZM51.7576 71.9628V68.4564C51.7576 67.7903 51.2134 67.2487 50.5461 67.2487C49.8768 67.2487 49.3326 67.7903 49.3326 68.4564V74.3955C50.2499 73.5247 51.0941 72.6615 51.7576 71.9628Z" fill="#EBFCF2"/>
<path opacity="0.36" fill-rule="evenodd" clip-rule="evenodd" d="M61.6362 86.5646C56.1729 86.5646 52.8345 87.8719 47.8404 90.0003L47.7038 89.6844C52.1922 87.7685 55.4248 86.5244 59.892 86.2699C58.4844 85.7416 57.6094 84.5301 57.5113 82.8515C57.3959 80.9069 58.3651 78.6943 60.0997 76.9334C61.5401 75.473 64.1727 73.626 68.5457 73.115L68.5861 73.4557C64.3131 73.9571 61.7478 75.7544 60.3478 77.1746C58.6786 78.8684 57.7478 80.9815 57.8575 82.8304C57.9325 84.1147 58.4805 85.0851 59.3959 85.6517C59.251 85.413 59.1779 85.14 59.1767 84.8325C59.1767 82.8917 62.2458 80.0111 66.4881 80.0111V80.3575C62.4478 80.3575 59.5228 83.0295 59.5228 84.8325C59.5241 85.2459 59.6837 85.5719 60.0017 85.8105C60.3209 86.0479 60.7753 86.1825 61.3651 86.2144C61.3702 86.2144 61.3753 86.2144 61.3805 86.2144C61.4625 86.2182 61.5478 86.2201 61.6362 86.2201C65.5631 86.2201 69.0976 83.4218 70.8591 78.9144C72.7264 74.137 72.4918 67.3845 67.7573 63.0646L67.99 62.81C72.8456 67.239 73.0918 74.1524 71.1822 79.0407C70.3265 81.2284 69.038 83.0812 67.4554 84.398C67.0592 84.7272 66.647 85.0201 66.2188 85.2765C69.5361 84.0171 73.1283 81.5576 76.3263 78.2541C81.4166 72.9963 84.3358 66.9117 84.3358 61.5583C84.3358 55.7033 81.1032 52.5606 77.8994 52.0419C75.8263 51.7088 74.0918 52.5031 73.5822 54.0229L73.2552 53.9137C73.8187 52.2275 75.7071 51.3394 77.9551 51.7012C80.2839 52.0782 82.6243 53.7683 83.8358 56.8001C82.5877 51.1193 79.1167 47.2415 74.8052 47.2415C71.461 47.2415 68.7399 49.9499 68.7399 53.2783C68.7399 56.0096 70.6668 56.49 73.1072 57.0967C75.8994 57.7915 79.3763 58.6566 80.5185 63.589L80.182 63.6656C79.0859 58.9399 75.8648 58.1379 73.0225 57.4317C71.4649 57.0431 70.0399 56.689 69.1938 55.7378C69.9091 57.7398 71.3764 59.6691 72.9033 61.6769C75.7302 65.3958 78.6532 69.2411 77.0494 74.0299L76.7205 73.9208C78.2667 69.3042 75.3994 65.5336 72.6264 61.8855C70.4495 59.0222 68.3938 56.3177 68.3938 53.2783C68.3938 51.5653 69.0572 49.9594 70.263 48.7594C71.4707 47.5593 73.0822 46.897 74.8052 46.897C79.2301 46.897 82.7993 50.7901 84.1262 56.513C83.4589 49.0158 81.3205 45.1821 79.3955 41.7331C77.8071 38.8851 76.3052 36.1959 76.0187 31.9047L76.3648 31.8817C76.6455 36.0963 78.0609 38.6305 79.6993 41.5666C81.7839 45.3027 84.1166 49.4828 84.5935 58.203C85.255 54.174 87.055 52.1108 88.3299 50.6485C89.6876 49.0962 90.3684 48.3153 88.5453 46.5027L87.4088 45.3697C87.2415 46.0472 86.6261 46.5525 85.8954 46.5525C85.0358 46.5525 84.3358 45.8558 84.3358 45.0003C84.3358 44.1447 85.0358 43.448 85.8954 43.448C86.6261 43.448 87.2415 43.9533 87.4088 44.6309L88.5453 43.4978C90.478 41.5761 88.5011 39.6009 85.5089 36.6112C83.4512 34.5556 80.8897 31.9966 78.8628 28.6739C77.0013 25.6191 75.8879 22.4247 75.4917 18.9756C75.0591 22.5376 73.9264 25.6344 72.9033 28.4365C70.8437 34.0618 69.2188 38.5061 74.2341 43.4978L73.9898 43.7428C71.6168 41.3809 70.5303 38.9846 70.5707 36.2035C70.6072 33.7 71.5649 31.0855 72.5764 28.3179C73.5725 25.6 74.6687 22.5988 75.1167 19.1709C74.3071 21.4811 72.7149 23.5616 71.0572 25.7263C67.6227 30.2127 64.0708 34.8522 67.338 42.1714L67.0227 42.3111C65.3246 38.5099 65.415 35.4245 66.3708 32.7105L54.0306 23.1577L47.4365 30.3773C48.3961 30.8003 49.3672 31.2176 50.3365 31.631C51.0518 31.936 51.7569 32.2396 52.4518 32.5421V29.1332C52.4518 28.2777 53.1518 27.581 54.0114 27.581C54.871 27.581 55.571 28.2777 55.571 29.1332V33.9527C57.7882 35.0111 59.7151 36.0944 61.0574 37.283L60.8266 37.5414C58.5421 35.5183 54.4902 33.7842 50.1999 31.9487C42.7866 28.7753 35.1233 25.4966 35.1233 20.1642C35.1233 18.1545 35.9444 16.3324 37.4348 15.0328C38.8713 13.783 40.8193 13.0939 42.9212 13.0939C45.2346 13.0939 47.5788 13.8921 49.3538 15.2854C51.1018 16.6597 52.1057 18.4378 52.1057 20.1642C52.1057 21.4007 51.0941 22.4074 49.8518 22.4074C48.6096 22.4074 47.6 21.4007 47.6 20.1642C47.6 18.9278 48.6096 17.9229 49.8518 17.9229C50.4903 17.9229 51.0653 18.189 51.4749 18.6139C51.0768 17.5133 50.273 16.4492 49.1384 15.5572C47.425 14.2098 45.1577 13.4384 42.9212 13.4384C38.6732 13.4384 35.4694 16.3305 35.4694 20.1642C35.4694 23.0658 37.9117 25.3626 41.3616 27.38V21.816C39.9251 22.4649 37.5252 23.0639 37.4175 23.0907L37.3329 22.7577C37.3598 22.75 39.979 22.0955 41.3616 21.437V19.7508C39.9924 20.3958 38.1425 21.0121 38.1232 21.0179L38.0136 20.6906C38.0348 20.6848 40.002 20.0283 41.3616 19.368V17.6837L38.8386 18.9393L38.6848 18.6311L41.3616 17.299V15.6568L39.5501 16.8587L39.3597 16.5716L41.5347 15.1285L43.7097 16.5716L43.5174 16.8587L41.7078 15.6568V17.299L44.3846 18.6311L44.2289 18.9393L41.7078 17.6837V19.368C43.0654 20.0283 45.0346 20.6848 45.0558 20.6906L44.9443 21.0179C44.925 21.0121 43.077 20.3958 41.7078 19.7508V21.437C43.0904 22.0955 45.7077 22.75 45.7346 22.7577L45.6519 23.0907C45.5442 23.0639 43.1443 22.4649 41.7078 21.816V27.5791C43.3462 28.5112 45.1923 29.3839 47.1019 30.2299L53.9902 22.6907L66.4958 32.3698C67.4534 29.8663 69.1303 27.6747 70.7822 25.5177C72.5995 23.1424 74.3398 20.8705 75.0206 18.3019C74.5744 19.1919 73.9187 20.124 73.111 20.9738C71.4149 22.7615 69.5053 23.7855 67.8746 23.7855C65.915 23.7855 64.5516 22.773 64.1323 21.0083C63.4631 18.1852 65.4285 13.9457 69.8765 11.7312L70.0015 11.6699L70.088 11.779C70.1168 11.8135 72.9149 15.3754 70.088 18.8933L69.8168 18.677C72.2283 15.6778 70.3457 12.7207 69.9015 12.1044C65.6996 14.2576 63.8381 18.2636 64.4689 20.9279C64.8477 22.5261 66.09 23.441 67.8746 23.441C69.388 23.441 71.2514 22.4304 72.8591 20.7365C74.3571 19.1575 75.3244 17.3085 75.3244 16.0262C75.3244 13.381 73.8245 10.4641 71.311 8.22088C70.0053 7.05525 68.5323 6.14421 66.9611 5.51067C65.1342 4.82929 63.3362 4.46945 61.6362 4.46945C59.7286 4.46945 58.8594 5.76713 58.8594 6.97295C58.8594 7.81702 59.2747 8.64197 60.0017 9.23722C60.8766 9.95497 62.1612 10.3339 63.715 10.3339V10.6785C60.1401 10.6785 58.5132 8.75679 58.5132 6.97295C58.5132 5.95279 59.0709 4.92307 60.1497 4.42734C55.6633 4.18618 50.248 2.86551 47.65 0.279703L47.8942 0.0366211C50.7172 2.84446 56.9959 4.12492 61.6362 4.12492C63.5208 4.12492 65.3785 4.49623 67.1207 5.2025C70.3649 6.42172 73.6937 8.63814 76.7475 11.6776C81.1455 16.0568 83.9896 21.2839 83.9896 24.9932H83.6435C83.6435 21.37 80.8397 16.2386 76.5013 11.9226C74.761 10.1904 72.9322 8.73 71.0841 7.57203C71.2393 7.69835 71.3918 7.82851 71.5418 7.96249C74.1283 10.2708 75.6706 13.2853 75.6706 16.0262C75.6706 20.7844 78.7147 23.7109 81.6589 26.5417C83.8262 28.6241 85.8742 30.5936 86.753 33.2177L86.4242 33.3268C85.5723 30.7831 83.555 28.8423 81.4185 26.7886C79.2186 24.6736 76.9667 22.505 75.9225 19.5613C77.1071 27.7283 82.2243 32.8406 85.755 36.3681C88.7799 39.3923 90.9664 41.5761 88.7895 43.7428L87.5261 45.0003L88.7895 46.2577C90.8414 48.3 89.9472 49.324 88.5915 50.8743C87.0357 52.6582 84.6819 55.355 84.6819 61.5583C84.6819 66.9998 81.7281 73.1724 76.5763 78.4933C71.7553 83.4716 66.0304 86.5646 61.6362 86.5646ZM51.7576 20.1642C51.7576 19.1192 50.9037 18.2674 49.8518 18.2674C48.8019 18.2674 47.9461 19.1192 47.9461 20.1642C47.9461 21.2112 48.8019 22.061 49.8518 22.061C50.9037 22.061 51.7576 21.2112 51.7576 20.1642ZM52.546 32.5822C53.4672 32.9842 54.3652 33.3842 55.2229 33.7881V29.1332C55.2229 28.4671 54.6806 27.9255 54.0114 27.9255C53.3422 27.9255 52.7979 28.4671 52.7979 29.1332V32.5822H52.546ZM87.1088 45.0003C87.1088 44.3342 86.5646 43.7925 85.8954 43.7925C85.2262 43.7925 84.6819 44.3342 84.6819 45.0003C84.6819 45.6663 85.2262 46.208 85.8954 46.208C86.5646 46.208 87.1088 45.6663 87.1088 45.0003Z" fill="#EBFCF2"/>
<path opacity="0.36" fill-rule="evenodd" clip-rule="evenodd" d="M29.8503 85.5729C34.3367 85.8141 39.752 87.1347 42.35 89.7206L42.1058 89.9636C39.2828 87.1558 33.0041 85.8753 28.3638 85.8753C26.4792 85.8753 24.6215 85.504 22.8793 84.7978C19.6351 83.5785 16.3063 81.3621 13.2525 78.3227C8.85455 73.9435 6.01038 68.7163 6.01038 65.007H6.35652C6.35652 68.6302 9.16032 73.7616 13.4987 78.0777C15.239 79.8099 17.0679 81.2703 18.9159 82.4282C18.7608 82.3019 18.6082 82.1717 18.4582 82.0378C15.8717 79.7295 14.3294 76.7149 14.3294 73.9741C14.3294 69.2159 11.2853 66.2894 8.3411 63.4586C6.17383 61.3761 4.1258 59.4067 3.24697 56.7826L3.57581 56.6735C4.42772 59.2172 6.44498 61.158 8.58148 63.2117C10.7814 65.3267 13.0333 67.4952 14.0775 70.4389C12.8929 62.2719 7.77573 57.1596 4.24503 53.6321C1.21816 50.608 -0.966413 48.4241 1.21047 46.2575L2.47391 45L1.21047 43.7425C-0.841416 41.7003 0.0528029 40.6763 1.40855 39.1259C2.96428 37.3421 5.31809 34.6453 5.31809 28.442C5.31809 23.0005 8.27187 16.8279 13.4237 11.507C17.8717 6.91336 23.087 3.92752 27.3196 3.49113C27.358 3.4873 27.3965 3.48346 27.435 3.47963C27.4901 3.47453 27.5446 3.47007 27.5984 3.46625C27.6933 3.45859 27.7888 3.45222 27.885 3.44711C27.9157 3.44584 27.9465 3.44456 27.9773 3.44328C28.1055 3.43818 28.2343 3.43562 28.3638 3.43562C33.8271 3.43562 37.1655 2.12837 42.1597 0L42.2962 0.315814C37.7482 2.25661 34.4906 3.51028 29.933 3.73996C30.5022 4.01557 30.8522 4.46727 30.933 5.07018C31.2272 7.25596 27.9869 10.6629 22.8658 12.0524L22.7735 11.7194C28.1811 10.2514 30.8272 6.88273 30.5907 5.11611C30.4734 4.25481 29.683 3.78015 28.3638 3.78015C28.2407 3.78015 28.1164 3.7827 27.9907 3.78781C27.9548 3.78908 27.9189 3.79098 27.883 3.79353C27.801 3.79736 27.7189 3.80248 27.6369 3.80886C27.5677 3.81396 27.4991 3.8197 27.4311 3.82608C27.4209 3.82736 27.4112 3.82864 27.4023 3.82991C24.4081 4.14572 21.9447 5.94296 20.3928 8.97282C17.7044 14.2306 18.4909 21.7947 22.2658 26.9625C28.6042 35.6348 39.1405 40.1825 46.8346 43.5052C52.6614 46.0201 56.5113 47.6815 55.5556 49.8979L55.2383 49.762C56.0556 47.8614 52.1306 46.1675 46.6961 43.821C38.9655 40.483 28.3792 35.9123 21.987 27.1654C20.0216 24.4762 18.8236 21.232 18.5197 17.783C18.2332 14.533 18.789 11.3481 20.0851 8.81586C20.9851 7.05881 22.1831 5.69989 23.612 4.78883C20.3409 6.06738 16.8179 8.50006 13.6737 11.7462C8.5834 17.004 5.66423 23.0885 5.66423 28.442C5.66423 34.2969 8.89686 37.4397 12.1006 37.9584C14.1737 38.2933 15.9083 37.4971 16.4179 35.9774L16.7448 36.0865C16.2659 37.5201 14.8256 38.3776 13.0218 38.3776C12.7064 38.3788 12.3808 38.3527 12.0449 38.2991C9.71608 37.922 7.37573 36.232 6.16422 33.2002C7.41227 38.8809 10.8834 42.7587 15.1948 42.7587C18.539 42.7587 21.2601 40.0504 21.2601 36.722C21.2601 33.7782 18.9544 32.9189 16.2871 31.9236C13.4448 30.8632 10.2257 29.6631 8.79301 25.7414L9.11993 25.6246C10.4968 29.3952 13.6372 30.5665 16.4083 31.6001C18.1524 32.2509 19.7486 32.8461 20.6986 33.9792C19.9505 32.0786 18.5524 30.2373 17.0967 28.3233C14.2698 24.6044 11.3468 20.7592 12.9506 15.9704L13.2795 16.0795C11.7333 20.6961 14.6006 24.4666 17.3736 28.1147C19.5505 30.9781 21.6062 33.6825 21.6062 36.722C21.6062 38.435 20.9428 40.0408 19.737 41.2409C18.5294 42.441 16.9179 43.1032 15.1948 43.1032C10.7737 43.1032 7.20651 39.2159 5.87769 33.5007C6.54691 40.9481 8.67955 44.7818 10.5987 48.2347C12.191 51.0961 13.6929 53.8006 13.9814 58.0956L13.6352 58.1185C13.3525 53.9001 11.9353 51.3526 10.2949 48.4012C8.21419 44.6593 5.88538 40.4696 5.40654 31.7953C4.74502 35.8243 2.94505 37.8895 1.67008 39.3518C0.31241 40.904 -0.368344 41.685 1.4547 43.4975L2.59121 44.6306C2.75851 43.953 3.3739 43.4477 4.10465 43.4477C4.96425 43.4477 5.66423 44.1444 5.66423 45C5.66423 45.8556 4.96425 46.5522 4.10465 46.5522C3.3739 46.5522 2.75851 46.047 2.59121 45.3694L1.4547 46.5025C-0.477958 48.4241 1.49892 50.3994 4.49117 53.389C6.54882 55.4447 9.11031 58.0037 11.1372 61.3264C12.9987 64.3811 14.1121 67.5756 14.5083 71.0246C14.941 67.4627 16.0736 64.3658 17.0967 61.5637C19.1563 55.9385 20.7812 51.4942 15.766 46.5025L16.0102 46.2575C18.3832 48.6194 19.4697 51.0157 19.4294 53.7967C19.3928 56.3002 18.4351 58.9148 17.4236 61.6824C16.4448 64.3543 15.3698 67.2962 14.9083 70.6514C15.7063 68.2608 17.2255 65.9277 18.8044 63.5007C22.3293 58.0879 25.9754 52.4895 22.662 45.0708L22.2831 44.221L22.9427 44.8775C26.9696 48.8873 33.8637 51.1975 39.9463 53.2359C45.35 55.0466 50.4537 56.7558 52.7556 59.3741L52.4941 59.6019C50.2537 57.0544 45.1942 55.3585 39.8347 53.5613C34.006 51.609 27.435 49.406 23.2947 45.6871C24.5177 48.8242 24.6215 51.9306 23.6139 55.1576C22.6543 58.2219 20.8466 61.001 19.0967 63.6883C17.5121 66.121 15.9909 68.4579 15.2121 70.8351C15.3737 70.5659 15.5544 70.3107 15.7544 70.0695C16.7198 68.9173 17.9986 68.2838 19.3544 68.2838C21.0428 68.2838 22.3178 69.1125 22.9447 70.6169C23.9735 73.0898 23.0581 76.7398 20.862 78.9256L20.7736 79.0136L20.662 78.9582C17.8428 77.5552 17.1332 73.486 17.1044 73.3138L17.4448 73.2563C17.4525 73.2965 18.1371 77.2126 20.7062 78.5926C22.7466 76.4891 23.5889 73.0707 22.6235 70.749C22.2216 69.7824 21.3274 68.6283 19.3544 68.6283C16.5967 68.6283 14.6756 71.4457 14.6756 73.9741C14.6756 76.6192 16.1756 79.5362 18.689 81.7794C19.9947 82.945 21.4678 83.8561 23.0389 84.4896C24.8658 85.171 26.6638 85.5308 28.3638 85.5308C30.2714 85.5308 31.1407 84.2331 31.1407 83.0273C31.1407 81.4081 29.6215 79.6663 26.285 79.6663V79.3218C27.9215 79.3218 29.2811 79.7276 30.2195 80.497C31.0253 81.1592 31.4868 82.0799 31.4868 83.0273C31.4868 84.0475 30.9291 85.0772 29.8503 85.5729ZM2.89121 45C2.89121 45.6661 3.43543 46.2077 4.10465 46.2077C4.77387 46.2077 5.31809 45.6661 5.31809 45C5.31809 44.3339 4.77387 43.7923 4.10465 43.7923C3.43543 43.7923 2.89121 44.3339 2.89121 45Z" fill="#EBFCF2"/>
</svg>
