<svg xmlns="http://www.w3.org/2000/svg" width="90" height="90" fill="none"><path fill="#EBFCF2" d="m63.732 48.82-.015-.473a18.758 18.758 0 0 0-.098-.955c-.1-.637-.233-1.276-.443-1.896-.05-.156-.102-.311-.155-.465l-.185-.452-.094-.226a6.795 6.795 0 0 0-.104-.22l-.215-.435c-.072-.147-.158-.281-.237-.42-.08-.139-.158-.282-.246-.414l-.264-.394a10.438 10.438 0 0 0-.132-.198l-.14-.185a15.613 15.613 0 0 0-2.491-2.609 23.608 23.608 0 0 0-2.736-1.949c-.927-.57-1.86-1.079-2.793-1.552-1.863-.943-3.72-1.75-5.542-2.536-1.821-.786-3.608-1.546-5.319-2.36-1.708-.811-3.346-1.676-4.798-2.658-1.454-.98-2.713-2.08-3.598-3.31a8.075 8.075 0 0 1-1.525-4.086l-.027-.281-.008-.29-.011-.286.008-.27c-.002-.182.025-.36.034-.54.008-.09.025-.18.035-.27.015-.088.02-.18.042-.268.13-.712.344-1.416.67-2.08a8.605 8.605 0 0 1 1.218-1.88c.06-.073.122-.145.185-.216l.194-.209.098-.105.102-.1.206-.199c.142-.128.285-.256.433-.379.152-.118.296-.245.456-.354.624-.455 1.3-.852 2.023-1.16.719-.31 1.478-.545 2.26-.704a12.357 12.357 0 0 1 2.4-.241c.858-.004 1.702.055 2.53.178.827.124 1.63.313 2.411.566.78.251 1.523.584 2.233.976.358.192.7.41 1.04.634.166.119.333.234.495.356.161.128.327.247.48.38a13.962 13.962 0 0 1 1.752 1.748 17.03 17.03 0 0 1 1.471 2.064 20.3 20.3 0 0 1 1.19 2.31l4.681-1.864a22.535 22.535 0 0 0-1.379-3.002 20.459 20.459 0 0 0-1.855-2.81c-1.41-1.775-3.164-3.35-5.177-4.514a18.018 18.018 0 0 0-3.162-1.444 19.473 19.473 0 0 0-3.338-.828 22.07 22.07 0 0 0-3.373-.268 17.908 17.908 0 0 0-3.488.337 17.18 17.18 0 0 0-3.387 1.045 16.002 16.002 0 0 0-3.107 1.768c-.246.172-.477.366-.714.551-.232.19-.456.393-.68.594l-.328.312-.161.159-.156.164-.311.331c-.1.113-.2.227-.296.343a14.21 14.21 0 0 0-1.995 3.058 13.594 13.594 0 0 0-1.142 3.513c-.033.153-.048.308-.073.461-.02.153-.046.308-.06.463-.025.31-.061.618-.063.93l-.014.467.012.448.015.45c.01.15.023.301.037.452.106 1.206.367 2.429.8 3.594a13.73 13.73 0 0 0 1.729 3.252 17.167 17.167 0 0 0 2.361 2.636c.85.775 1.74 1.458 2.65 2.07 1.817 1.227 3.688 2.2 5.542 3.082 1.856.88 3.704 1.664 5.508 2.44 1.802.778 3.567 1.547 5.227 2.385 1.653.837 3.205 1.754 4.465 2.793.625.52 1.163 1.074 1.596 1.646.439.572.746 1.17.954 1.795.11.312.173.64.233.97.019.17.037.34.053.512l.008.264c.004.086.012.178.006.258a5.52 5.52 0 0 1-.37 1.926 6.999 6.999 0 0 1-1.009 1.772 11.3 11.3 0 0 0-.315-.243 24.29 24.29 0 0 0-1.942-1.296 31.016 31.016 0 0 0-1.977-1.096 43.43 43.43 0 0 0-1.987-.958c-2.648-1.196-5.282-2.155-7.836-3.146-2.552-.988-5.035-1.996-7.31-3.197-2.265-1.2-4.311-2.624-5.755-4.379l-3.935 3.135a19.475 19.475 0 0 0 3.41 3.308c1.225.947 2.51 1.745 3.805 2.461a50.474 50.474 0 0 0 3.921 1.928c1.31.581 2.62 1.12 3.916 1.638 2.59 1.041 5.144 2.02 7.526 3.126 1.189.555 2.337 1.14 3.387 1.79.525.323 1.029.66 1.496 1.015.468.357.898.728 1.29 1.116.781.78 1.38 1.614 1.762 2.517.383.902.563 1.886.565 2.95-.005.56-.036 1.13-.113 1.688a13.734 13.734 0 0 1-.34 1.66 14.315 14.315 0 0 1-.562 1.62c-.229.532-.477 1.06-.77 1.574-1.16 2.061-2.786 3.975-4.663 5.711-1.54 1.428-3.234 2.756-5.011 4.004-.53-.21-1.056-.428-1.579-.652a49.072 49.072 0 0 1-2.82-1.334 37.147 37.147 0 0 1-2.684-1.516 30.113 30.113 0 0 1-2.49-1.72 21.983 21.983 0 0 1-2.208-1.934c-.67-.682-1.282-1.398-1.773-2.144-.492-.745-.894-1.512-1.13-2.28a6.378 6.378 0 0 1-.264-1.144l-.03-.283c-.014-.096-.01-.19-.016-.284-.004-.093-.012-.187-.006-.29.002-.1 0-.203.01-.301.077-1.589.729-2.925 1.823-3.744a4.22 4.22 0 0 1 1.85-.789c.167-.02.333-.043.498-.045.044 0 .08-.006.129-.002l.14.004c.094.002.189 0 .28.013.373.024.73.09 1.074.195A4.834 4.834 0 0 1 38 62.647a5.747 5.747 0 0 1 1.348 1.826c.679 1.422.83 3.143.435 4.754l4.89 1.218c.675-2.642.49-5.547-.696-8.114a10.882 10.882 0 0 0-2.516-3.46 10.004 10.004 0 0 0-3.817-2.194 9.953 9.953 0 0 0-2.167-.42c-.183-.022-.363-.026-.544-.032l-.273-.01c-.089-.001-.19.003-.285.005-.386.004-.77.042-1.148.093-.758.117-1.5.32-2.206.611a9.505 9.505 0 0 0-1.986 1.118 9.632 9.632 0 0 0-1.656 1.554 9.766 9.766 0 0 0-1.233 1.882c-.669 1.334-1.011 2.779-1.098 4.172-.015.176-.015.348-.02.522-.008.173-.003.353.003.533.008.18.006.36.023.537l.054.536c.092.705.233 1.405.446 2.064.406 1.336 1.029 2.536 1.737 3.629.71 1.094 1.528 2.063 2.39 2.955.865.892 1.78 1.698 2.727 2.442a35.633 35.633 0 0 0 2.923 2.06 41.634 41.634 0 0 0 3.048 1.762c1.033.543 2.08 1.05 3.138 1.522 1.06.467 2.126.905 3.202 1.315l1.308.507 1.204-.794c1.2-.79 2.382-1.621 3.54-2.504.58-.438 1.15-.895 1.717-1.362a45.648 45.648 0 0 0 1.662-1.465 37.33 37.33 0 0 0 1.596-1.567 32.061 32.061 0 0 0 1.51-1.698c.245-.287.476-.597.715-.896.227-.312.461-.614.677-.94.444-.633.853-1.303 1.236-1.99.387-.685.725-1.409 1.035-2.146.307-.739.563-1.506.78-2.287.214-.78.366-1.583.477-2.389.106-.807.148-1.617.15-2.432a13.521 13.521 0 0 0-.263-2.57 12.318 12.318 0 0 0-.79-2.53c-.215-.49-.459-.96-.733-1.412.19-.209.376-.426.554-.65.769-.965 1.429-2.06 1.894-3.27a11.1 11.1 0 0 0 .75-3.833c.008-.165-.002-.32-.006-.479Z"/><path fill="#EBFCF2" d="m24.05 59.41.31.155c1.81-3.6 5.021-5.424 9.55-5.424 6.1 0 11.615 4.739 11.669 4.787l.229-.26c-.056-.048-5.668-4.872-11.898-4.872-5.817 0-8.573 3.053-9.86 5.614Z" opacity=".36"/><path fill="#EBFCF2" fill-rule="evenodd" d="m45.089 78.262-.074.044-.078-.03c-2.952-1.178-6.158-3.057-8.575-5.029-2.146-1.75-4.704-4.42-4.704-7.206a2.941 2.941 0 0 1 2.944-2.93c1.646 0 2.935 1.142 3.63 3.22l.078.229h-4.4v-.345h3.915c-.665-1.807-1.777-2.76-3.223-2.76a2.595 2.595 0 0 0-2.598 2.586c0 .74.196 1.493.546 2.245 4.698.67 10.925 4.645 13.736 8.741.206-.155.412-.317.62-.484v-9.455l-1.387-2.73V61.02h2.427v1.38h1.04v-1.38h2.425v1.38h1.04v-1.38h2.426v3.339l-1.387 2.758v3.474l-.042.05c-.048.055-4.91 5.561-8.36 7.62Zm.919-1.028c-2.712-3.964-8.677-7.813-13.267-8.567 2.03 3.79 7.844 7.484 12.244 9.256.33-.203.671-.433 1.023-.689Zm2.978-8.778c0-.855.699-1.552 1.56-1.552.86 0 1.56.697 1.56 1.552v3.14c.542-.58.917-.998 1.038-1.136v-3.424l1.279-2.547h-7.344v-.345h7.452v-2.779h-1.733v1.38h-1.733v-1.38h-1.732v1.38H47.6v-1.38h-1.733v2.911l1.385 2.73v9.252a41.766 41.766 0 0 0 1.734-1.535v-6.267Zm2.772 3.507v-3.507c0-.666-.545-1.207-1.212-1.207-.67 0-1.213.541-1.213 1.207v5.94a67.239 67.239 0 0 0 2.425-2.433Z" clip-rule="evenodd" opacity=".36"/><path fill="#EBFCF2" fill-rule="evenodd" d="M61.636 86.565c-5.463 0-8.802 1.307-13.796 3.435l-.136-.316c4.488-1.915 7.72-3.16 12.188-3.414-1.408-.528-2.283-1.74-2.38-3.418-.116-1.945.853-4.158 2.588-5.919 1.44-1.46 4.073-3.307 8.446-3.818l.04.34c-4.273.502-6.838 2.3-8.238 3.72-1.67 1.693-2.6 3.806-2.49 5.655.075 1.285.623 2.255 1.538 2.822a1.56 1.56 0 0 1-.22-.82c0-1.94 3.07-4.82 7.312-4.82v.346c-4.04 0-6.965 2.671-6.965 4.474.001.414.16.74.479.979.319.237.773.371 1.363.403h.015c.082.004.168.006.256.006 3.927 0 7.462-2.798 9.223-7.306 1.867-4.777 1.633-11.53-3.102-15.85l.233-.254c4.856 4.429 5.102 11.342 3.192 16.23-.856 2.188-2.144 4.041-3.727 5.358-.396.33-.808.622-1.236.879 3.317-1.26 6.91-3.72 10.107-7.023 5.09-5.258 8.01-11.342 8.01-16.696 0-5.855-3.233-8.997-6.437-9.516-2.073-.333-3.807.461-4.317 1.98l-.327-.108c.564-1.687 2.452-2.575 4.7-2.213 2.329.377 4.67 2.067 5.88 5.1-1.247-5.682-4.718-9.56-9.03-9.56-3.344 0-6.065 2.709-6.065 6.037 0 2.732 1.927 3.212 4.367 3.819 2.792.694 6.27 1.56 7.412 6.492l-.337.077c-1.096-4.726-4.317-5.528-7.16-6.234-1.557-.389-2.982-.743-3.828-1.694.715 2.002 2.182 3.931 3.71 5.939 2.826 3.719 5.75 7.564 4.145 12.353l-.329-.11c1.547-4.616-1.32-8.386-4.094-12.035-2.177-2.863-4.232-5.567-4.232-8.607a6.33 6.33 0 0 1 1.869-4.519 6.397 6.397 0 0 1 4.542-1.862c4.425 0 7.994 3.893 9.321 9.616-.667-7.497-2.806-11.33-4.73-14.78-1.589-2.848-3.09-5.537-3.377-9.828l.346-.023c.28 4.214 1.696 6.748 3.334 9.685 2.085 3.736 4.418 7.916 4.895 16.636.661-4.029 2.461-6.092 3.736-7.555 1.358-1.552 2.038-2.333.215-4.145L87.41 45.37a1.561 1.561 0 0 1-1.514 1.183c-.86 0-1.56-.697-1.56-1.553a1.558 1.558 0 0 1 3.074-.37l1.136-1.132c1.933-1.922-.044-3.897-3.036-6.887-2.058-2.055-4.62-4.614-6.646-7.937-1.862-3.055-2.975-6.25-3.371-9.698-.433 3.562-1.566 6.658-2.589 9.46-2.06 5.626-3.684 10.07 1.331 15.062l-.244.245c-2.373-2.362-3.46-4.758-3.42-7.54.037-2.503.995-5.118 2.006-7.885.997-2.718 2.093-5.72 2.54-9.147-.809 2.31-2.401 4.39-4.059 6.555-3.434 4.487-6.986 9.126-3.719 16.445l-.315.14c-1.698-3.801-1.608-6.886-.652-9.6l-12.34-9.553-6.594 7.22c.96.422 1.93.84 2.9 1.253.715.305 1.42.609 2.115.911v-3.409c0-.855.7-1.552 1.56-1.552.859 0 1.559.697 1.559 1.552v4.82c2.217 1.058 4.144 2.141 5.486 3.33l-.23.258c-2.285-2.023-6.337-3.757-10.627-5.592-7.413-3.174-15.077-6.452-15.077-11.785 0-2.01.821-3.832 2.312-5.131 1.436-1.25 3.384-1.94 5.486-1.94 2.314 0 4.658.8 6.433 2.192 1.748 1.375 2.752 3.153 2.752 4.88a2.252 2.252 0 0 1-2.254 2.242 2.25 2.25 0 0 1-2.252-2.243 2.248 2.248 0 0 1 2.252-2.241c.638 0 1.213.266 1.623.69-.398-1.1-1.202-2.164-2.337-3.056-1.713-1.347-3.98-2.119-6.217-2.119-4.248 0-7.452 2.893-7.452 6.726 0 2.902 2.443 5.199 5.893 7.216v-5.564c-1.437.649-3.837 1.248-3.945 1.275l-.084-.333c.027-.008 2.646-.662 4.029-1.321v-1.686c-1.37.645-3.22 1.261-3.239 1.267l-.11-.327c.022-.006 1.989-.663 3.349-1.323v-1.684l-2.523 1.255-.154-.308 2.677-1.332v-1.642l-1.812 1.202-.19-.287 2.175-1.443 2.175 1.443-.193.287-1.81-1.202v1.642l2.678 1.332-.156.308-2.521-1.255v1.684c1.357.66 3.327 1.317 3.348 1.323l-.112.327c-.019-.006-1.867-.622-3.236-1.267v1.686c1.382.659 4 1.313 4.027 1.32l-.083.334c-.108-.027-2.508-.626-3.944-1.275v5.763c1.638.932 3.484 1.805 5.394 2.65l6.888-7.538 12.506 9.679c.957-2.504 2.634-4.695 4.286-6.852 1.818-2.376 3.558-4.648 4.239-7.216-.447.89-1.102 1.822-1.91 2.672-1.696 1.788-3.606 2.811-5.236 2.811-1.96 0-3.323-1.012-3.743-2.777-.669-2.823 1.296-7.062 5.744-9.277l.125-.061.087.109c.029.034 2.827 3.596 0 7.114l-.271-.216c2.411-3 .529-5.956.085-6.573-4.202 2.154-6.064 6.16-5.433 8.824.379 1.598 1.621 2.513 3.406 2.513 1.513 0 3.376-1.01 4.984-2.704 1.498-1.58 2.465-3.428 2.465-4.71 0-2.646-1.5-5.563-4.013-7.806a14.9 14.9 0 0 0-4.35-2.71c-1.827-.682-3.625-1.042-5.325-1.042-1.907 0-2.777 1.298-2.777 2.504 0 .844.416 1.669 1.143 2.264.875.718 2.16 1.097 3.713 1.097v.345c-3.575 0-5.202-1.922-5.202-3.706 0-1.02.558-2.05 1.637-2.546-4.487-.24-9.902-1.561-12.5-4.147l.244-.243c2.823 2.807 9.102 4.088 13.742 4.088 1.885 0 3.742.371 5.485 1.077 3.244 1.22 6.573 3.436 9.627 6.476 4.397 4.379 7.242 9.606 7.242 13.315h-.346c0-3.623-2.804-8.754-7.143-13.07-1.74-1.733-3.569-3.193-5.417-4.351.155.126.308.257.458.39 2.586 2.309 4.129 5.323 4.129 8.064 0 4.758 3.044 7.685 5.988 10.516 2.167 2.082 4.215 4.052 5.094 6.676l-.329.109c-.852-2.544-2.869-4.485-5.006-6.538-2.2-2.115-4.451-4.284-5.496-7.228 1.185 8.167 6.302 13.28 9.833 16.807 3.025 3.024 5.211 5.208 3.035 7.375L87.526 45l1.264 1.258c2.051 2.042 1.157 3.066-.199 4.616-1.555 1.784-3.91 4.481-3.91 10.684 0 5.442-2.953 11.614-8.105 16.935-4.82 4.979-10.546 8.072-14.94 8.072Zm-9.878-66.4a1.903 1.903 0 0 0-1.906-1.898c-1.05 0-1.906.852-1.906 1.897 0 1.047.856 1.897 1.906 1.897 1.052 0 1.906-.85 1.906-1.897Zm.788 12.417c.921.402 1.82.802 2.677 1.206v-4.655a1.212 1.212 0 0 0-2.425 0v3.45h-.252ZM87.109 45c0-.666-.544-1.208-1.214-1.208-.669 0-1.213.542-1.213 1.208 0 .666.544 1.208 1.213 1.208.67 0 1.214-.542 1.214-1.208Z" clip-rule="evenodd" opacity=".36"/><path fill="#EBFCF2" fill-rule="evenodd" d="M29.85 85.573c4.487.241 9.902 1.562 12.5 4.148l-.244.243c-2.823-2.808-9.102-4.089-13.742-4.089a14.59 14.59 0 0 1-5.485-1.077c-3.244-1.22-6.573-3.436-9.627-6.475-4.397-4.38-7.242-9.607-7.242-13.316h.347c0 3.623 2.803 8.755 7.142 13.07 1.74 1.733 3.569 3.193 5.417 4.351a13.27 13.27 0 0 1-.458-.39c-2.586-2.308-4.129-5.323-4.129-8.064 0-4.758-3.044-7.685-5.988-10.515-2.167-2.083-4.215-4.052-5.094-6.676l.329-.11c.852 2.544 2.869 4.485 5.005 6.539 2.2 2.115 4.452 4.283 5.497 7.227-1.185-8.167-6.302-13.28-9.833-16.807-3.027-3.024-5.211-5.208-3.035-7.374L2.474 45 1.21 43.742C-.84 41.7.053 40.676 1.41 39.127c1.555-1.784 3.91-4.48 3.91-10.684 0-5.442 2.953-11.614 8.105-16.935 4.448-4.594 9.663-7.58 13.896-8.016l.115-.011.163-.014c.095-.007.19-.014.287-.019l.092-.004c.128-.005.257-.007.387-.007 5.463 0 8.802-1.308 13.796-3.436l.136.316c-4.548 1.94-7.805 3.194-12.363 3.424.57.276.92.727 1 1.33.294 2.186-2.946 5.593-8.067 6.982l-.093-.333c5.408-1.468 8.054-4.836 7.818-6.603-.118-.861-.908-1.336-2.227-1.336a9.183 9.183 0 0 0-.962.05c-2.994.316-5.457 2.113-7.01 5.143-2.688 5.258-1.901 12.822 1.874 17.99 6.338 8.672 16.875 13.22 24.569 16.542 5.826 2.515 9.676 4.176 8.72 6.393l-.317-.136c.818-1.9-3.107-3.595-8.542-5.941-7.73-3.338-18.317-7.909-24.709-16.656-1.965-2.689-3.163-5.933-3.467-9.382-.287-3.25.269-6.435 1.565-8.967.9-1.757 2.098-3.116 3.527-4.027-3.271 1.278-6.794 3.711-9.938 6.957-5.09 5.258-8.01 11.342-8.01 16.696 0 5.855 3.233 8.998 6.437 9.516 2.073.335 3.807-.46 4.317-1.98l.327.108c-.48 1.434-1.92 2.292-3.723 2.292a6.05 6.05 0 0 1-.977-.079c-2.329-.377-4.67-2.067-5.88-5.099 1.247 5.68 4.718 9.559 9.03 9.559 3.344 0 6.065-2.709 6.065-6.037 0-2.944-2.306-3.803-4.973-4.798-2.842-1.06-6.061-2.26-7.494-6.183l.327-.116c1.377 3.77 4.517 4.942 7.288 5.975 1.744.65 3.34 1.246 4.29 2.38-.747-1.901-2.146-3.743-3.601-5.657-2.827-3.719-5.75-7.564-4.146-12.353l.329.11c-1.547 4.616 1.32 8.387 4.094 12.035 2.177 2.863 4.232 5.567 4.232 8.607a6.33 6.33 0 0 1-1.869 4.519 6.396 6.396 0 0 1-4.542 1.862c-4.421 0-7.988-3.887-9.317-9.602.669 7.447 2.802 11.28 4.72 14.734 1.593 2.861 3.095 5.566 3.383 9.86l-.346.023c-.283-4.218-1.7-6.765-3.34-9.717-2.08-3.742-4.41-7.931-4.888-16.606-.662 4.03-2.462 6.094-3.737 7.557-1.358 1.552-2.038 2.333-.215 4.146L2.59 44.63a1.558 1.558 0 0 1 3.073.37 1.561 1.561 0 0 1-3.073.37L1.455 46.5c-1.933 1.922.044 3.897 3.036 6.887 2.058 2.056 4.62 4.615 6.646 7.937 1.862 3.055 2.975 6.25 3.371 9.699.433-3.562 1.566-6.66 2.589-9.461 2.06-5.626 3.684-10.07-1.331-15.062l.244-.245c2.373 2.362 3.46 4.759 3.42 7.54-.037 2.503-.995 5.118-2.006 7.885-.98 2.672-2.054 5.614-2.516 8.97.798-2.391 2.318-4.724 3.896-7.151 3.525-5.413 7.171-11.011 3.858-18.43l-.379-.85.66.657c4.027 4.01 10.92 6.32 17.003 8.358 5.404 1.81 10.508 3.52 12.81 6.138l-.262.228c-2.24-2.548-7.3-4.243-12.66-6.04-5.828-1.953-12.399-4.156-16.54-7.875 1.224 3.137 1.328 6.244.32 9.47-.96 3.065-2.767 5.844-4.517 8.531-1.585 2.433-3.106 4.77-3.885 7.147.162-.27.342-.524.542-.765.966-1.153 2.245-1.786 3.6-1.786 1.689 0 2.964.828 3.59 2.333 1.03 2.473.114 6.123-2.082 8.309l-.088.088-.112-.056c-2.82-1.403-3.529-5.472-3.558-5.644l.34-.058c.009.04.693 3.957 3.262 5.337 2.04-2.104 2.883-5.522 1.918-7.844-.402-.967-1.297-2.12-3.27-2.12-2.757 0-4.678 2.817-4.678 5.345 0 2.645 1.5 5.562 4.013 7.805a14.9 14.9 0 0 0 4.35 2.71c1.827.682 3.625 1.042 5.325 1.042 1.907 0 2.777-1.298 2.777-2.504 0-1.619-1.52-3.36-4.856-3.36v-.345c1.637 0 2.996.406 3.934 1.175.806.662 1.268 1.583 1.268 2.53 0 1.02-.558 2.05-1.637 2.546ZM2.891 45c0 .666.544 1.208 1.214 1.208.669 0 1.213-.542 1.213-1.208 0-.666-.544-1.208-1.213-1.208-.67 0-1.214.542-1.214 1.208Z" clip-rule="evenodd" opacity=".36"/></svg>