<svg xmlns="http://www.w3.org/2000/svg" width="122" height="36" fill="none"><path fill="#fff" d="M20.097 28.867c-.842 0-1.467-.197-1.874-.59-.408-.394-.673-.945-.795-1.652a14.172 14.172 0 0 1-.184-2.404V9.18h-2.201v-2.2h2.201l.49-4.225h2.078V6.98h2.779v2.2h-2.78v15.652c0 .652.069 1.121.204 1.407.136.285.395.428.775.428h1.387v1.67a3.576 3.576 0 0 1-.673.286 5.903 5.903 0 0 1-.734.184c-.231.04-.456.06-.673.06Z"/><path fill="#fff" fill-rule="evenodd" d="M27.639 28.908c-.762 0-1.428-.122-1.998-.367a3.789 3.789 0 0 1-1.447-1.08c-.394-.475-.7-1.073-.917-1.793-.217-.72-.326-1.542-.326-2.466 0-.979.143-1.896.428-2.751a5.68 5.68 0 0 1 1.447-2.284c.68-.665 1.624-1.188 2.833-1.569 1.21-.38 2.751-.57 4.626-.57V12.44c0-.842-.095-1.535-.285-2.079-.19-.543-.51-.957-.958-1.243-.449-.286-1.026-.429-1.733-.429-.924 0-1.61.204-2.058.612-.448.407-.74.938-.877 1.59-.135.653-.203 1.4-.203 2.242v.244h-2.404a1.484 1.484 0 0 1-.042-.366v-.45c0-1.574.265-2.797.795-3.668.53-.869 1.23-1.487 2.1-1.854.869-.367 1.82-.55 2.853-.55 1.06 0 1.99.17 2.792.51.801.34 1.427.944 1.875 1.814.448.87.672 2.065.672 3.586v12.798c0 .49.089.85.266 1.081.176.23.4.346.671.346h1.305v1.63c-.326.137-.686.266-1.08.388a4.18 4.18 0 0 1-1.244.184c-.57 0-1.018-.136-1.344-.408-.327-.272-.558-.645-.694-1.12a8.652 8.652 0 0 1-.284-1.53h-.204a6.44 6.44 0 0 1-1.04 1.61 4.56 4.56 0 0 1-1.507 1.122c-.585.271-1.258.407-2.018.407Zm.693-2.201c.407 0 .841-.122 1.303-.366.462-.245.89-.605 1.285-1.08.393-.476.72-1.088.978-1.835.258-.747.387-1.637.387-2.67v-2.813c-1.821.028-3.214.26-4.178.694-.965.434-1.623 1.018-1.976 1.752-.354.734-.53 1.563-.53 2.487 0 .842.108 1.548.326 2.119.217.57.523.999.917 1.284.393.285.89.428 1.488.428Z" clip-rule="evenodd"/><path fill="#fff" d="M38.377 36a11.293 11.293 0 0 1-1.956-.204V33.8h1.141c.597-.001 1.08-.198 1.447-.592.366-.394.692-.992.977-1.794.286-.801.538-1.8.755-2.995l-4.443-21.44h2.69l2.446 13.288c.054.245.108.605.163 1.08.054.476.115.972.183 1.488.068.516.116.992.144 1.426h.244c.027-.326.074-.686.142-1.08.068-.393.13-.794.184-1.202.054-.407.109-.802.163-1.182.054-.38.108-.706.163-.978l2.445-12.84h2.527l-4.32 20.707a81.124 81.124 0 0 1-.754 3.28c-.259 1.02-.578 1.903-.958 2.65-.38.747-.843 1.331-1.386 1.752-.544.421-1.21.632-1.997.632Z"/><path fill="#fff" d="M59.184.983H47.107l-.522 2.527h5.382v24.91h2.853V3.51h4.364V.983ZM60.54.983v27.436h2.568V15.702c0-1.55.163-2.833.49-3.852.325-1.02.76-1.774 1.303-2.262.543-.49 1.154-.734 1.834-.734.489 0 .883.082 1.182.244.299.164.53.409.694.735.162.326.27.707.325 1.14.055.436.082.912.082 1.428v16.018h2.568V11.83c0-1.33-.17-2.39-.51-3.179-.34-.787-.808-1.344-1.406-1.67-.598-.327-1.318-.49-2.16-.49-.57 0-1.12.095-1.65.286-.53.19-1.013.503-1.448.937-.435.435-.802 1.019-1.1 1.753h-.204V.983H60.54Z"/><path fill="#fff" fill-rule="evenodd" d="M79.73 28.908c-1.576 0-2.833-.381-3.77-1.142-.938-.76-1.61-1.969-2.018-3.627-.408-1.657-.612-3.804-.612-6.44 0-2.744.225-4.938.673-6.583.45-1.644 1.162-2.826 2.14-3.546.978-.72 2.255-1.08 3.831-1.08 1.25 0 2.316.292 3.2.876.884.584 1.55 1.59 1.998 3.017.448 1.426.672 3.39.672 5.89v1.956H75.98c0 1.93.102 3.52.305 4.77.204 1.249.578 2.18 1.121 2.79.544.612 1.305.918 2.284.918.516 0 .984-.102 1.405-.306a3 3 0 0 0 1.1-.937c.313-.421.557-.985.734-1.692.177-.706.279-1.562.306-2.568h2.527c-.027 1.25-.183 2.358-.468 3.323-.286.964-.68 1.773-1.182 2.425a4.759 4.759 0 0 1-1.855 1.467c-.734.326-1.576.49-2.527.49Zm-3.75-12.595h7.215c0-1.331-.055-2.472-.164-3.423-.108-.951-.285-1.74-.53-2.365-.245-.624-.584-1.086-1.019-1.385-.434-.3-.978-.45-1.63-.45-1.032 0-1.827.327-2.384.98-.558.65-.945 1.547-1.162 2.689-.218 1.141-.326 2.46-.326 3.954Z" clip-rule="evenodd"/><path fill="#fff" d="M87.747 28.419V6.979h2.038l.204 2.854h.203c.354-.815.754-1.468 1.203-1.958.448-.489.944-.842 1.487-1.059a4.57 4.57 0 0 1 1.712-.326c1.006 0 1.842.245 2.508.734.665.489 1.093 1.358 1.284 2.609h.244c.353-.815.74-1.468 1.161-1.958.421-.489.903-.842 1.447-1.059a4.568 4.568 0 0 1 1.712-.326c.842 0 1.562.163 2.16.49.598.325 1.067.882 1.407 1.67.339.789.509 1.848.509 3.18v16.589h-2.567V12.4c0-.516-.021-.992-.061-1.426a3.19 3.19 0 0 0-.307-1.141 1.652 1.652 0 0 0-.692-.735c-.299-.163-.693-.244-1.182-.244-.68 0-1.284.245-1.814.733-.53.49-.951 1.243-1.263 2.262-.313 1.02-.47 2.303-.47 3.852V28.42h-2.527V12.4c0-.516-.027-.992-.08-1.426a3.505 3.505 0 0 0-.328-1.141 1.652 1.652 0 0 0-.692-.735c-.299-.163-.693-.244-1.182-.244-.68 0-1.284.245-1.814.733-.53.49-.951 1.243-1.263 2.262-.313 1.02-.47 2.303-.47 3.852V28.42h-2.567Z"/><path fill="#fff" fill-rule="evenodd" d="M115.191 28.908c-1.577 0-2.834-.381-3.77-1.142-.938-.76-1.611-1.969-2.018-3.627-.408-1.657-.612-3.804-.612-6.44 0-2.744.224-4.938.672-6.583.449-1.644 1.162-2.826 2.14-3.546.979-.72 2.256-1.08 3.832-1.08 1.25 0 2.316.292 3.199.876.883.584 1.549 1.59 1.998 3.017.449 1.426.673 3.39.673 5.89v1.956h-9.864c0 1.93.102 3.52.305 4.77.204 1.249.578 2.18 1.121 2.79.544.612 1.304.918 2.282.918.516 0 .985-.102 1.407-.306a3.002 3.002 0 0 0 1.101-.937c.312-.421.556-.985.733-1.692.176-.706.278-1.562.306-2.568h2.527c-.028 1.25-.184 2.358-.469 3.323-.285.964-.679 1.773-1.181 2.425a4.762 4.762 0 0 1-1.856 1.467c-.733.326-1.575.49-2.526.49Zm-3.75-12.595h7.214c0-1.331-.055-2.472-.163-3.423-.109-.951-.286-1.74-.53-2.365-.245-.624-.584-1.086-1.019-1.385-.435-.3-.978-.45-1.63-.45-1.033 0-1.828.327-2.385.98-.557.65-.944 1.547-1.161 2.689-.218 1.141-.326 2.46-.326 3.954Z" clip-rule="evenodd"/><path fill="#fff" d="M14.306 14.688a4.47 4.47 0 0 0-.68-1.314 5.877 5.877 0 0 0-.941-.992c-.668-.56-1.368-.958-2.052-1.309-1.37-.692-2.716-1.197-3.948-1.787a13.044 13.044 0 0 1-1.71-.953c-.512-.346-.947-.73-1.245-1.146a2.707 2.707 0 0 1-.522-1.564l-.004-.098.006-.089c.004-.06.006-.12.008-.18.006-.06.02-.12.029-.179.01-.12.056-.236.083-.354.014-.06.045-.115.065-.173.025-.056.038-.117.072-.17.219-.445.546-.859.974-1.166a3.77 3.77 0 0 1 1.458-.638c.133-.03.272-.039.407-.062l.417-.023.446.012c.145.018.294.024.436.047a4.748 4.748 0 0 1 1.605.533c.496.262.93.637 1.304 1.08.38.441.692.962.945 1.528l2.103-.84a8.069 8.069 0 0 0-1.202-2.18A6.835 6.835 0 0 0 10.421.964a7.18 7.18 0 0 0-2.438-.86C7.773.07 7.562.053 7.352.028c-.21-.014-.42-.02-.63-.028-.218.009-.437.015-.656.031-.219.032-.439.052-.657.099a6.274 6.274 0 0 0-2.451 1.066 5.67 5.67 0 0 0-1.76 2.1c-.057.102-.092.216-.139.323-.041.111-.09.218-.123.331-.063.23-.137.454-.169.69-.019.118-.041.235-.054.353l-.022.357-.008.178.004.17a5.311 5.311 0 0 0 .325 1.716c.163.446.39.869.657 1.244.539.752 1.208 1.318 1.88 1.776.675.458 1.365.817 2.044 1.141 1.356.647 2.7 1.153 3.89 1.758.591.3 1.14.627 1.575.987.433.364.726.742.853 1.143.067.2.102.421.097.653.002.212-.043.416-.118.62a2.222 2.222 0 0 1-.202.398 8.761 8.761 0 0 0-.64-.422c-.487-.292-.978-.54-1.463-.76-.973-.438-1.931-.791-2.856-1.151-.923-.36-1.819-.725-2.63-1.154-.812-.425-1.521-.933-2.026-1.535L.304 13.526c.772.96 1.733 1.637 2.682 2.163.957.535 1.927.932 2.869 1.316.942.381 1.864.737 2.72 1.137.426.2.83.414 1.202.643.373.229.705.48.968.747.532.541.766 1.107.77 1.83a4.865 4.865 0 0 1-.156 1.156c-.114.377-.262.75-.463 1.11-.048.092-.109.18-.163.268l-.081.135c-.028.044-.062.087-.092.13l-.185.262-.205.255-.103.127-.112.123-.223.248-.239.239c-.077.081-.159.16-.244.236a17.43 17.43 0 0 1-1.686 1.367 17.12 17.12 0 0 1-1.454-.663A12.16 12.16 0 0 1 4.265 25.2c-.558-.431-1.053-.916-1.396-1.43a3.073 3.073 0 0 1-.384-.773 2.092 2.092 0 0 1-.087-.377 1.8 1.8 0 0 1-.013-.38c.035-1.05.876-1.68 1.805-1.393.438.119.81.46 1.035.93.109.233.19.492.207.765.023.27.001.547-.058.821l2.197.549a5.027 5.027 0 0 0 .132-1.56 4.42 4.42 0 0 0-.4-1.543 4.228 4.228 0 0 0-.961-1.334 3.783 3.783 0 0 0-1.47-.846c-.136-.05-.274-.076-.414-.104l-.21-.04c-.069-.01-.14-.012-.209-.018l-.21-.014a3.275 3.275 0 0 0-.66.034c-.293.04-.579.127-.853.235-.27.119-.532.257-.766.437a3.644 3.644 0 0 0-1.117 1.332A4.183 4.183 0 0 0 .01 22.1c-.019.262-.015.546.02.819.036.27.09.54.17.791.155.512.391.968.657 1.382.54.825 1.209 1.469 1.906 2.025a14.448 14.448 0 0 0 2.201 1.42c.76.403 1.539.745 2.328 1.048l.588.23.54-.36c.877-.583 1.739-1.22 2.543-1.968.101-.09.2-.186.296-.286l.294-.294.283-.312.14-.156.134-.166.268-.332.25-.354c.042-.059.085-.117.124-.178l.114-.188c.075-.126.156-.246.224-.378a7.953 7.953 0 0 0 .68-1.671 7.28 7.28 0 0 0 .236-1.822 5.045 5.045 0 0 0-.41-1.951 4.697 4.697 0 0 0-.194-.39l.104-.122c.292-.37.543-.79.723-1.256a4.28 4.28 0 0 0 .289-1.48 4.456 4.456 0 0 0-.213-1.463Z"/></svg>